<?xml version="1.0" standalone="no"?>
<!DOCTYPE svg PUBLIC "-//W3C//DTD SVG 20010904//EN"
 "http://www.w3.org/TR/2001/REC-SVG-20010904/DTD/svg10.dtd">
<svg version="1.0" xmlns="http://www.w3.org/2000/svg"
 width="5458.000000pt" height="3070.000000pt" viewBox="0 0 5458.000000 3070.000000"
 preserveAspectRatio="xMidYMid meet">
<metadata>
Created by potrace 1.11, written by Peter Selinger 2001-2013
</metadata>
<g transform="translate(0.000000,3070.000000) scale(0.100000,-0.100000)"
fill="#000000" stroke="none">
<path d="M840 20885 c0 -4637 4 -8025 9 -8025 15 0 21 -39 32 -210 5 -91 17
-205 25 -254 8 -49 19 -145 25 -213 5 -69 16 -152 24 -186 8 -34 17 -107 21
-162 4 -55 13 -118 21 -140 8 -22 18 -75 24 -117 5 -42 16 -92 23 -110 8 -18
17 -60 21 -93 4 -33 15 -85 25 -115 10 -30 21 -76 25 -102 3 -26 15 -72 26
-102 10 -31 19 -66 19 -78 0 -13 9 -50 20 -83 11 -33 26 -87 34 -120 26 -108
37 -149 52 -195 9 -25 22 -72 29 -105 8 -33 21 -74 29 -90 9 -17 16 -40 16
-53 0 -13 9 -44 20 -70 11 -26 24 -65 29 -87 11 -45 33 -111 67 -203 13 -34
24 -69 24 -78 0 -8 9 -32 20 -54 11 -22 20 -47 20 -57 0 -11 8 -35 19 -55 10
-21 24 -58 30 -84 7 -25 18 -56 25 -67 8 -12 17 -37 21 -56 4 -19 16 -48 26
-65 10 -17 19 -39 19 -50 0 -10 9 -33 19 -50 10 -17 22 -46 26 -65 4 -19 16
-48 26 -65 10 -17 19 -37 19 -44 0 -14 39 -104 70 -164 11 -20 20 -42 20 -49
0 -6 9 -30 19 -53 49 -106 70 -153 76 -176 4 -14 13 -32 20 -40 7 -8 20 -31
29 -50 24 -51 46 -93 57 -110 5 -8 16 -31 24 -50 9 -19 20 -42 25 -50 6 -8 19
-33 30 -55 11 -22 24 -47 29 -55 5 -8 14 -26 20 -40 6 -14 15 -32 21 -40 5 -8
15 -26 21 -40 5 -14 23 -47 39 -75 16 -27 34 -61 39 -75 6 -14 15 -32 21 -40
5 -8 23 -42 39 -75 16 -33 43 -80 60 -105 17 -25 31 -50 31 -56 0 -6 7 -17 16
-24 8 -8 22 -27 30 -44 16 -33 38 -70 94 -158 19 -30 40 -61 45 -70 6 -9 28
-42 49 -74 22 -33 55 -83 75 -113 59 -87 64 -95 116 -171 28 -40 59 -85 70
-100 11 -15 38 -54 60 -86 34 -51 140 -195 189 -259 9 -11 28 -37 43 -57 84
-113 139 -184 241 -312 62 -77 121 -150 130 -161 10 -11 74 -87 142 -170 68
-82 130 -157 139 -166 9 -9 45 -49 81 -90 157 -179 768 -774 955 -930 22 -18
63 -54 90 -79 119 -107 215 -188 347 -293 15 -12 42 -35 60 -51 18 -15 58 -47
88 -69 30 -23 92 -71 137 -107 45 -36 110 -85 143 -110 34 -25 69 -52 78 -60
10 -8 31 -24 47 -34 16 -11 34 -23 40 -28 15 -12 80 -60 120 -88 19 -14 61
-44 91 -67 31 -24 60 -43 63 -43 4 0 33 -19 63 -42 31 -24 71 -52 89 -63 18
-11 43 -27 55 -35 18 -13 55 -38 164 -110 15 -10 77 -49 160 -102 53 -33 61
-38 120 -78 25 -16 50 -30 56 -30 6 0 17 -7 24 -16 8 -8 27 -22 44 -30 17 -8
51 -27 76 -44 25 -16 59 -36 75 -45 17 -8 50 -28 75 -45 25 -16 63 -38 85 -49
22 -12 58 -32 80 -46 22 -13 51 -29 65 -34 14 -6 32 -16 40 -21 8 -6 31 -17
50 -25 19 -9 42 -20 50 -25 8 -6 22 -13 30 -17 46 -19 77 -34 90 -42 13 -8 45
-23 150 -70 14 -6 32 -15 40 -20 15 -9 175 -86 240 -115 19 -9 42 -19 50 -24
51 -29 122 -62 131 -62 6 0 22 -9 36 -20 14 -11 33 -20 42 -20 9 0 39 -11 66
-25 28 -13 58 -25 69 -25 10 0 33 -9 50 -19 17 -10 46 -22 65 -26 19 -4 48
-16 65 -26 17 -10 40 -19 50 -19 10 0 37 -9 60 -19 23 -11 61 -26 86 -34 60
-20 103 -35 178 -63 34 -13 69 -24 78 -24 8 0 31 -8 52 -19 20 -10 55 -21 77
-25 22 -4 49 -13 60 -21 12 -7 46 -18 78 -25 31 -6 59 -15 62 -20 3 -5 31 -14
63 -20 31 -7 68 -18 82 -25 14 -7 52 -18 85 -25 33 -7 65 -16 71 -21 6 -5 35
-13 65 -19 30 -6 81 -20 114 -30 61 -19 105 -31 210 -56 33 -8 83 -22 110 -31
28 -9 79 -22 115 -29 36 -7 90 -19 120 -27 55 -14 104 -25 210 -47 30 -7 84
-19 120 -27 36 -9 94 -20 130 -25 36 -5 101 -18 145 -28 44 -11 107 -22 140
-25 33 -3 83 -12 110 -20 28 -8 125 -19 216 -24 91 -6 190 -16 220 -21 30 -6
142 -17 249 -25 196 -14 230 -19 230 -36 0 -5 250 -9 590 -9 340 0 590 4 590
9 0 16 33 22 199 32 91 5 202 16 247 24 44 8 138 20 208 25 70 6 155 17 189
25 34 7 103 16 152 20 50 3 133 15 185 25 52 10 132 21 176 25 45 3 102 12
127 20 26 8 86 17 134 21 49 3 113 15 143 24 30 10 77 21 105 25 27 4 62 13
76 21 14 7 53 17 86 23 33 5 75 16 94 24 19 8 57 17 84 21 27 5 62 14 78 22
15 8 53 20 85 25 31 6 62 15 68 20 6 5 39 15 75 23 35 8 84 21 109 30 67 23
139 46 195 62 28 8 64 21 82 29 17 8 38 15 47 15 9 0 43 11 76 25 33 14 67 25
77 25 10 0 34 8 53 19 19 10 52 21 74 25 21 4 55 16 75 27 20 10 45 19 56 19
11 0 36 8 55 19 19 10 49 21 67 25 17 4 48 16 69 27 21 10 45 19 54 19 8 0 29
7 45 16 17 9 54 25 83 35 28 10 76 28 105 38 28 10 66 26 82 35 17 9 36 16 43
16 7 0 30 8 50 19 37 18 124 59 172 80 14 6 32 15 40 20 8 5 107 55 220 111
113 56 216 109 230 116 14 8 36 19 50 25 14 6 48 23 75 39 28 16 61 34 75 39
14 6 32 16 40 21 8 6 33 19 55 30 48 24 182 97 245 134 25 14 63 35 85 46 22
12 58 32 80 45 22 14 51 31 65 38 23 11 78 44 178 104 21 12 48 28 62 35 14 7
49 28 79 48 29 19 67 42 83 51 16 8 33 19 36 25 4 5 25 21 47 35 96 62 153
101 190 129 22 16 47 33 55 37 8 3 38 25 67 47 28 23 68 52 88 66 20 14 46 33
58 42 12 10 39 30 59 45 140 103 218 163 315 241 12 9 32 25 45 35 35 27 331
265 348 280 8 7 83 69 165 137 194 160 186 152 544 510 332 332 516 526 671
709 30 36 64 74 75 86 33 35 130 147 169 195 20 25 42 52 50 60 12 13 131 159
189 232 12 16 41 49 64 75 24 27 43 51 43 54 0 6 34 51 118 156 9 12 28 38 42
58 14 20 35 49 48 65 12 15 22 32 22 38 0 5 7 16 17 23 9 8 22 28 30 44 8 17
36 62 64 100 56 80 102 148 170 255 27 41 54 82 62 90 7 8 24 33 38 55 14 22
44 68 67 103 23 34 49 77 57 95 9 18 27 50 40 72 28 46 65 113 95 170 11 22
32 60 46 85 49 83 114 205 129 240 9 19 20 42 25 50 5 8 45 89 90 180 45 91
86 172 91 180 5 8 14 26 20 40 44 97 62 138 71 155 6 11 14 27 18 35 4 8 19
40 34 71 14 31 26 62 26 70 0 8 9 25 20 39 11 14 20 31 20 39 0 13 32 86 71
163 10 20 19 43 19 51 0 8 11 35 25 61 14 26 25 53 25 61 0 8 11 35 25 61 14
26 25 54 25 63 0 9 9 30 20 46 11 17 20 39 20 50 0 11 12 43 25 70 14 28 25
56 25 63 0 7 9 30 20 52 11 22 20 47 20 57 0 10 12 41 25 68 14 28 25 60 25
73 0 13 6 36 14 51 8 15 22 58 31 96 8 38 20 73 24 79 5 6 15 40 21 76 6 36
16 70 21 76 5 6 14 38 20 70 5 33 19 83 30 112 10 29 19 64 19 78 0 13 9 50
20 81 11 31 23 80 26 107 4 28 15 73 25 99 11 26 19 60 19 75 0 15 7 52 15 82
9 30 22 91 29 136 8 44 21 105 29 135 9 30 18 81 22 114 3 33 13 80 20 105 8
25 19 84 24 131 5 48 16 113 24 145 8 33 18 95 21 139 4 44 14 109 22 144 8
35 19 118 24 185 6 66 17 156 24 201 8 44 20 159 25 255 11 181 17 220 32 220
5 0 9 3354 9 7945 l0 7945 -12090 0 -12090 0 0 -8025z m11950 4311 c0 -2921
-1 -3214 -16 -3220 -28 -11 -11400 -7 -11428 4 l-26 10 0 3197 c0 1998 4 3204
10 3213 8 13 658 16 5717 20 3139 3 5716 1 5726 -3 16 -7 17 -170 17 -3221z
m11727 1689 c2 -841 -1 -1536 -5 -1543 -11 -17 -11418 -18 -11438 -1 -19 16
-21 3048 -2 3067 9 9 1290 11 5728 10 l5715 -3 2 -1530z m-9 -4947 c9 -9 12
-390 12 -1654 0 -903 -3 -1649 -6 -1658 -6 -15 -519 -16 -5718 -16 -4429 0
-5715 3 -5724 12 -17 17 -17 3299 0 3316 17 17 11419 17 11436 0z m-11723
-5008 l0 -1665 -5713 -3 c-3927 -1 -5719 1 -5733 8 -19 11 -19 39 -19 1660 0
1560 1 1650 18 1659 11 7 1862 10 5732 8 l5715 -2 0 -1665z m11731 -1712 c4
-7 10 -255 12 -553 5 -659 -12 -1569 -32 -1745 -8 -69 -20 -204 -25 -300 -6
-96 -17 -209 -25 -250 -8 -41 -17 -120 -21 -175 -7 -98 -37 -251 -52 -266 -14
-13 -1512 -19 -6485 -25 -3850 -5 -4801 -4 -4813 6 -13 11 -15 198 -15 1650 0
901 3 1645 6 1654 6 15 519 16 5724 16 4438 0 5720 -3 5726 -12z m-11738
-3336 c10 -7 12 -347 10 -1668 l-3 -1659 -5094 -3 c-4841 -2 -5095 -1 -5114
15 -10 10 -35 52 -54 93 -19 41 -48 102 -64 136 -16 33 -29 65 -29 71 0 6 -6
16 -14 22 -8 7 -18 27 -22 44 -3 18 -15 43 -25 56 -11 13 -19 30 -19 37 0 8
-12 38 -27 66 -40 79 -45 90 -60 123 -8 17 -23 47 -33 67 -11 20 -20 43 -20
51 0 8 -9 26 -20 40 -11 14 -20 31 -20 39 0 7 -11 36 -25 63 -13 28 -25 59
-25 69 0 10 -9 37 -19 60 -11 23 -26 61 -34 86 -20 60 -35 103 -63 178 -13 34
-24 70 -24 80 0 9 -8 33 -18 52 -11 19 -22 51 -26 70 -3 19 -15 58 -25 85 -28
77 -51 145 -66 200 -7 28 -20 70 -28 95 -8 25 -23 68 -32 95 -9 28 -23 78 -31
113 -8 35 -18 71 -24 81 -5 10 -16 47 -24 82 -24 104 -46 190 -66 254 -10 33
-21 83 -25 110 -4 28 -13 64 -20 82 -7 17 -18 63 -24 101 -6 39 -16 83 -22 99
-6 15 -17 69 -25 118 -7 50 -20 115 -29 145 -18 66 -20 146 -2 153 21 9 11271
7 11285 -1z m10455 -3380 c8 -10 8 -18 -1 -30 -7 -10 -22 -35 -33 -57 -11 -22
-33 -60 -49 -85 -16 -25 -38 -63 -49 -85 -12 -22 -34 -62 -51 -90 -16 -27 -37
-63 -45 -80 -31 -59 -53 -95 -65 -110 -14 -17 -41 -64 -64 -112 -9 -17 -20
-34 -26 -38 -6 -4 -17 -21 -25 -38 -8 -18 -28 -52 -45 -77 -16 -25 -34 -55
-40 -68 -5 -12 -18 -35 -28 -50 -11 -15 -36 -52 -55 -82 -20 -30 -50 -73 -66
-95 -16 -22 -47 -64 -68 -94 -21 -29 -47 -66 -58 -81 -32 -45 -135 -180 -185
-242 -25 -31 -56 -73 -70 -92 -14 -20 -35 -49 -48 -64 -46 -54 -67 -80 -85
-103 -40 -54 -174 -217 -200 -244 -16 -17 -39 -46 -52 -65 -13 -19 -36 -49
-52 -66 -15 -16 -43 -48 -62 -70 -96 -110 -289 -326 -416 -464 -167 -180 -728
-729 -809 -792 -33 -26 -200 -163 -225 -185 -36 -32 -416 -330 -636 -499 -11
-8 -45 -32 -76 -52 -31 -20 -89 -59 -129 -87 -40 -27 -80 -54 -89 -60 -28 -17
-63 -39 -86 -55 -12 -8 -37 -25 -56 -37 -19 -13 -41 -27 -49 -33 -82 -55 -107
-70 -116 -70 -6 0 -19 -9 -29 -20 -10 -11 -22 -20 -27 -20 -5 0 -24 -11 -42
-25 -18 -14 -38 -25 -43 -25 -6 0 -16 -7 -23 -16 -8 -8 -27 -22 -44 -30 -17
-8 -51 -27 -76 -44 -25 -16 -56 -35 -70 -40 -14 -6 -33 -18 -42 -27 -16 -14
-46 -32 -113 -68 -16 -9 -50 -29 -75 -45 -25 -17 -61 -37 -80 -46 -19 -9 -37
-20 -40 -24 -3 -4 -21 -15 -40 -24 -19 -9 -53 -28 -75 -41 -22 -14 -58 -34
-80 -45 -39 -20 -86 -45 -115 -62 -8 -5 -31 -15 -50 -23 -19 -9 -42 -20 -50
-25 -8 -6 -26 -15 -40 -21 -28 -12 -72 -32 -171 -78 -36 -17 -70 -31 -76 -31
-6 0 -16 -7 -23 -15 -7 -8 -27 -17 -46 -21 -18 -3 -38 -12 -45 -20 -6 -8 -30
-19 -53 -25 -22 -6 -48 -17 -56 -24 -8 -7 -33 -18 -55 -24 -22 -6 -49 -18 -59
-26 -11 -8 -27 -15 -35 -15 -9 0 -37 -11 -63 -25 -26 -14 -53 -25 -60 -25 -7
0 -35 -12 -63 -25 -27 -14 -57 -25 -65 -25 -8 0 -28 -9 -45 -20 -16 -11 -39
-20 -50 -20 -11 0 -42 -12 -70 -25 -27 -14 -57 -25 -65 -25 -8 0 -32 -9 -53
-20 -20 -11 -45 -20 -55 -20 -10 0 -35 -9 -57 -20 -21 -11 -55 -23 -74 -26
-20 -3 -47 -13 -60 -21 -13 -9 -47 -21 -75 -28 -50 -13 -101 -30 -201 -66 -27
-9 -66 -21 -85 -24 -19 -4 -47 -14 -63 -22 -15 -7 -53 -19 -85 -24 -31 -6 -69
-17 -83 -25 -15 -7 -46 -16 -70 -20 -24 -4 -53 -11 -64 -17 -11 -6 -54 -19
-95 -28 -116 -27 -200 -49 -253 -65 -27 -9 -81 -21 -120 -29 -40 -8 -97 -21
-127 -29 -30 -9 -66 -16 -81 -16 -15 0 -55 -9 -90 -19 -35 -11 -93 -23 -129
-26 -35 -4 -82 -14 -104 -21 -21 -8 -80 -19 -130 -24 -50 -6 -116 -17 -146
-25 -30 -7 -89 -16 -130 -20 -41 -4 -104 -13 -139 -21 -36 -8 -146 -19 -245
-24 -100 -6 -230 -17 -291 -25 -64 -9 -213 -16 -355 -17 l-245 -3 -3 3205 c-1
1763 0 3211 3 3219 8 20 10151 13 10168 -7z m-10445 -4880 l-3 -1537 -250 1
c-178 1 -276 6 -340 17 -49 9 -155 21 -233 27 -79 6 -164 15 -189 20 -24 6
-108 17 -187 25 -78 8 -154 19 -169 24 -15 6 -75 15 -132 21 -58 5 -129 16
-158 24 -28 8 -81 18 -117 21 -36 4 -98 15 -139 26 -41 10 -89 19 -106 19 -17
0 -55 7 -85 15 -30 9 -93 22 -140 30 -47 7 -103 20 -125 28 -22 8 -62 17 -90
22 -27 4 -61 13 -75 20 -14 7 -51 18 -82 24 -32 5 -70 17 -85 24 -16 8 -48 18
-72 22 -24 4 -62 16 -85 26 -23 10 -51 19 -64 19 -13 0 -42 9 -65 19 -23 11
-60 22 -82 26 -22 4 -49 13 -61 20 -11 7 -45 20 -75 28 -81 23 -149 46 -197
68 -23 10 -50 19 -60 19 -10 0 -34 8 -54 19 -21 10 -58 24 -84 30 -25 7 -56
18 -67 25 -12 8 -37 17 -56 21 -19 4 -48 16 -65 26 -17 10 -40 19 -51 19 -11
0 -34 9 -51 19 -17 10 -46 22 -64 26 -18 4 -47 16 -64 26 -17 10 -38 19 -46
19 -8 0 -37 12 -65 25 -27 14 -57 25 -66 25 -8 0 -24 7 -35 15 -10 8 -37 20
-59 26 -22 6 -47 17 -55 24 -8 7 -34 18 -56 24 -23 6 -47 17 -53 25 -7 8 -27
17 -45 20 -19 4 -39 13 -46 21 -7 8 -17 15 -23 15 -10 0 -235 110 -267 130 -8
6 -26 15 -40 21 -14 5 -65 32 -115 59 -49 27 -108 59 -130 70 -22 12 -58 32
-80 45 -22 14 -58 34 -80 45 -50 26 -139 78 -250 145 -22 13 -54 31 -72 39
-17 9 -34 20 -38 26 -4 6 -21 17 -38 26 -52 25 -97 51 -115 67 -9 8 -30 22
-47 31 -28 16 -40 23 -111 70 -16 11 -63 41 -104 68 -41 26 -80 52 -86 56 -5
5 -21 15 -35 22 -13 7 -26 16 -29 20 -3 4 -18 15 -35 24 -16 9 -61 39 -100 67
-38 27 -101 71 -139 97 -38 26 -81 56 -96 67 -15 11 -40 29 -56 40 -16 11 -38
28 -48 37 -11 10 -24 18 -28 18 -14 0 -250 187 -328 259 -19 17 -60 51 -90 73
-30 23 -59 47 -65 52 -5 6 -39 36 -75 66 -36 30 -72 61 -81 70 -9 8 -51 42
-93 75 -42 33 -76 67 -76 76 0 14 60 16 587 22 322 4 1340 8 2262 8 922 1
2342 5 3156 8 814 3 1488 2 1498 -2 16 -7 17 -88 15 -1545z"/>
<path d="M44930 16475 l0 -3155 345 0 345 0 2 313 3 312 37 -56 c53 -81 149
-199 212 -262 259 -260 569 -389 971 -404 348 -13 643 46 930 187 531 261 907
822 1030 1535 39 226 49 355 49 615 -1 339 -25 545 -93 806 -132 499 -424 904
-807 1117 -158 89 -352 152 -555 182 -137 19 -429 20 -567 0 -474 -67 -848
-306 -1127 -720 -37 -55 -72 -101 -76 -103 -5 -2 -9 609 -9 1392 l0 1396 -345
0 -345 0 0 -3155z m2158 624 c272 -29 489 -132 670 -318 293 -300 425 -765
391 -1378 -25 -465 -119 -792 -310 -1078 -200 -299 -460 -465 -810 -515 -136
-20 -391 -8 -509 23 -211 56 -375 151 -530 306 -180 181 -293 391 -346 646
-17 81 -19 138 -19 585 0 435 2 508 18 598 41 231 125 436 255 622 69 99 255
277 350 333 249 149 537 210 840 176z"/>
<path d="M30260 19384 c-19 -2 -84 -9 -145 -15 -376 -38 -790 -161 -1095 -326
-686 -372 -1196 -984 -1434 -1721 -111 -345 -158 -675 -158 -1097 0 -413 42
-727 142 -1063 219 -739 715 -1332 1385 -1657 378 -184 745 -268 1230 -282
689 -19 1326 118 1923 414 l172 86 0 1358 0 1359 -1002 -2 -1003 -3 -3 -317
-2 -318 655 0 655 0 0 -836 0 -835 -112 -54 c-286 -137 -611 -209 -1003 -222
-794 -25 -1406 238 -1828 786 -248 320 -396 719 -459 1236 -20 165 -17 654 5
818 67 497 238 912 520 1262 35 44 123 136 194 205 344 333 729 514 1243 582
118 16 502 15 665 -1 325 -33 622 -101 875 -201 129 -52 279 -122 354 -166 33
-21 76 -46 94 -56 l32 -20 0 390 0 389 -107 45 c-290 123 -611 201 -993 243
-136 16 -713 29 -800 19z"/>
<path d="M39317 17659 c-406 -71 -736 -298 -978 -670 -28 -43 -56 -79 -60 -79
-5 0 -9 153 -9 340 l0 340 -340 0 -340 0 0 -2135 0 -2135 340 0 340 0 0 1218
c0 734 4 1275 11 1362 27 393 145 689 364 919 155 162 304 243 515 277 151 25
331 11 485 -37 355 -110 558 -414 614 -921 7 -65 11 -551 11 -1458 l0 -1360
345 0 344 0 4 1323 c3 1285 4 1325 24 1427 40 205 119 401 230 570 80 120 255
292 357 349 177 100 358 136 573 112 516 -57 745 -351 803 -1036 6 -73 10
-631 10 -1432 l0 -1313 345 0 345 0 0 1303 c0 1306 -6 1598 -36 1802 -92 635
-379 1031 -857 1184 -175 56 -255 66 -522 66 -209 -1 -253 -4 -340 -23 -217
-47 -397 -125 -557 -239 -166 -119 -352 -328 -468 -526 -24 -42 -47 -73 -51
-69 -4 4 -14 30 -23 59 -24 72 -97 213 -150 287 -190 266 -475 445 -800 501
-127 22 -389 19 -529 -6z"/>
<path d="M51115 17673 c-462 -54 -761 -146 -1097 -340 l-78 -45 0 -350 0 -350
63 50 c118 93 262 184 412 257 173 86 315 135 487 170 732 147 1148 -68 1268
-656 21 -104 43 -369 32 -381 -4 -3 -286 -45 -627 -93 -341 -47 -673 -95 -738
-106 -671 -113 -1088 -412 -1246 -895 -82 -251 -92 -580 -26 -840 93 -365 360
-653 726 -782 248 -88 614 -116 879 -68 412 74 741 300 975 669 26 42 52 74
57 71 4 -3 8 -153 8 -335 l0 -329 340 0 340 0 0 1468 c0 1237 -3 1488 -15
1601 -16 141 -53 325 -87 426 -33 99 -134 295 -190 370 -210 277 -525 439
-940 484 -88 10 -471 13 -543 4z m1095 -2400 c0 -428 -35 -631 -144 -846 -151
-296 -414 -512 -721 -594 -92 -25 -116 -27 -300 -27 -235 -1 -285 9 -440 85
-233 114 -366 312 -382 569 -9 156 20 322 78 445 94 199 346 335 764 410 124
23 1061 153 1108 154 l37 1 0 -197z"/>
<path d="M32837 17583 c-2 -5 369 -960 824 -2123 456 -1163 829 -2122 829
-2131 0 -18 -323 -786 -380 -904 -99 -202 -249 -368 -401 -442 -46 -23 -115
-49 -152 -58 -78 -19 -240 -22 -337 -6 -65 11 -217 48 -232 57 -4 3 -8 -134
-8 -304 l0 -309 78 -17 c261 -55 547 -42 770 35 428 150 775 548 1045 1199 74
179 1977 4977 1980 4993 1 9 -79 13 -349 15 l-352 2 -10 -27 c-5 -16 -278
-756 -606 -1647 -530 -1438 -676 -1851 -676 -1921 0 -26 -29 -16 -36 13 -45
183 -163 531 -643 1897 -310 880 -570 1619 -578 1643 l-15 42 -373 0 c-206 0
-376 -3 -378 -7z"/>
</g>
</svg>
