<svg xmlns="http://www.w3.org/2000/svg" width="56" height="56" viewBox="0 0 56 56"><path d="M30.28 15.06a2.28 2.28 0 1 1-2.28-2.29 2.28 2.28 0 0 1 2.28 2.29zm-2.28 6.33a2.28 2.28 0 0 0-2.28 2.28v13.27a2.28 2.28 0 0 0 4.57 0v-13.27a2.28 2.28 0 0 0-2.29-2.28zm6.72 29.8a24.64 24.64 0 0 0 12.71-8.46l.22-.28c.35-.45.68-.91 1-1.43l.09-.14a24.81 24.81 0 1 0-41.32.32c.21 1.12.76 5.74-3.49 8.11a1.5 1.5 0 0 0 .4 2.77 72.26 72.26 0 0 0 14.39 1.44 50.71 50.71 0 0 0 16-2.33zm-24.25-6.68c.15-1.06.22-3.75-.39-4.76a21.81 21.81 0 1 1 36.13-.45c-.3.45-.62.88-.94 1.3l-.18.23a21.75 21.75 0 0 1-11.26 7.48c-9.36 3.16-20.36 2.16-25.65 1.39a9.9 9.9 0 0 0 2.29-5.19z"/></svg>