<svg xmlns="http://www.w3.org/2000/svg" viewBox="-349 351 56 56" enable-background="new -349 351 56 56"><path d="M-311.3 359.8h-19.4c-5.1 0-9.3 4.1-9.3 9.3v19.9c0 5.1 4.1 9.3 9.3 9.3h19.4c5.1 0 9.3-4.1 9.3-9.3v-20c0-5.1-4.2-9.2-9.3-9.2zm6.3 9.4v8.4h-2.6c-.1-1-.4-2.2-1.2-3.1-.5-.6-1.6-1.4-3.3-1.4-1.7 0-2.7.8-3.3 1.4-.9.9-1.2 2.1-1.3 3.1h-2.8v-4.1c0-.4-.2-.8-.5-1.1-.4-.3-.8-.4-1.2-.4-.4.1-1.8.1-2.4-.5-.2-.2-.4-.4-.4-1.1 0-.7.2-1 .4-1.1.6-.6 1.9-.6 2.4-.5.4 0 .9-.1 1.2-.4.3-.2.5-.7.5-1.1v-4.4h8c3.8 0 6.5 2.9 6.5 6.3zm-25.7-6.3h8.5v3c-1 .1-2.2.4-3.1 1.2-.6.5-1.4 1.6-1.4 3.3 0 1.7.8 2.7 1.4 3.3.9.9 2.1 1.2 3.1 1.3v2.8h-4.1c-.4 0-.8.2-1.1.5-.3.4-.4.8-.4 1.2.1.4.1 1.8-.5 2.4-.2.2-.4.4-1.1.4s-1-.2-1.1-.4c-.6-.6-.6-1.9-.5-2.4 0-.4-.1-.9-.4-1.2-.3-.3-.7-.5-1.1-.5h-4.5v-8.4c0-3.7 2.8-6.5 6.3-6.5zm-6.3 26.3v-8.6h3.1c.1 1 .4 2.2 1.2 3.1.5.6 1.6 1.4 3.3 1.4 1.7 0 2.7-.8 3.4-1.4.9-.9 1.2-2.1 1.3-3.1h2.7v4.2c0 .4.2.8.5 1.1.4.3.8.4 1.2.4.4-.1 1.8-.1 2.4.5.2.2.4.4.4 1.1 0 .7-.2 1-.4 1.1-.6.6-1.9.6-2.4.5-.4 0-.9.1-1.2.4-.3.3-.5.7-.5 1.1v4.5h-8.5c-3.8 0-6.5-2.9-6.5-6.3zm25.7 6.3h-8v-3.2c1-.1 2.2-.4 3.1-1.2.6-.5 1.4-1.6 1.4-3.3 0-1.7-.8-2.7-1.4-3.3-.9-.9-2.1-1.2-3.1-1.3v-2.8h4.2c.4 0 .8-.2 1.1-.5s.4-.8.4-1.2c-.1-.5 0-1.8.5-2.4.2-.2.4-.4 1.1-.4s1 .2 1.1.4c.6.6.6 1.9.5 2.4-.1.4 0 .9.3 1.2.3.3.7.5 1.1.5h4v8.6c0 3.6-2.8 6.5-6.3 6.5z"/></svg>