<svg xmlns="http://www.w3.org/2000/svg" viewBox="-127 249 56 56" enable-background="new -127 249 56 56"><title>bolt</title><path d="M-104.1 305c-1.1 0-1.9-.9-1.9-1.9v-.3l3.1-22.1h-9.7c-1.1 0-1.9-.9-1.9-1.9v-.2l3-27.8c.1-1 .9-1.8 1.9-1.8h19.1c1.1 0 1.9.9 1.9 1.9 0 .2 0 .4-.1.6l-5.5 15.4 1.6-.1 7-.4c1.1-.1 2 .8 2 1.8 0 .3-.1.7-.2 1l-9.4 17.8-9.3 16.9c-.2.7-.9 1.1-1.6 1.1zm-6.4-28.1h9.8c1.1 0 1.9.9 1.9 1.9v.3l-2 14 4.3-7.8 7.7-14.8-3.6.2-4.5.2c-1.1 0-2-.8-2-1.8 0-.2 0-.5.1-.7l5.5-15.5h-14.6l-2.6 24z"/></svg>