<svg xmlns="http://www.w3.org/2000/svg" width="56" height="56" viewBox="0 0 56 56"><path d="M43.71 25.12a14.86 14.86 0 0 0-.48-2.39l1.28-1.43c3.41-3.77 5-5.5 4.47-11.88a1.61 1.61 0 0 0-1.76-1.51 1.64 1.64 0 0 0-1.51 1.76c.38 5-.47 5.93-3.64 9.44l-.4.45c-.18-.25-.35-.51-.55-.75a10.71 10.71 0 0 0-4.42-3 8.72 8.72 0 0 0-1.29-3.57c3-2.09 6.32-5.05 5.92-7.49a1.64 1.64 0 0 0-3.23.54c-.1.71-2.35 2.71-4.96 4.55a8.72 8.72 0 0 0-10.28 0c-2.6-1.84-4.86-3.84-4.96-4.52a1.64 1.64 0 0 0-3.23-.54c-.4 2.43 2.95 5.39 5.92 7.49a8.72 8.72 0 0 0-1.29 3.56 10.71 10.71 0 0 0-4.42 3c-.2.23-.37.49-.55.75l-.4-.44c-3.16-3.51-4-4.46-3.64-9.44a1.64 1.64 0 0 0-1.51-1.78 1.61 1.61 0 0 0-1.78 1.51c-.49 6.38 1.06 8.11 4.47 11.88l1.27 1.43a14.89 14.89 0 0 0-.48 2.39c-5.26 1.78-7.75 5.87-7.68 12.73a1.64 1.64 0 0 0 1.64 1.62 1.64 1.64 0 0 0 1.62-1.65c0-4.88 1.22-7.65 4.3-9.13a31.7 31.7 0 0 0 .32 3.39v.14a1.65 1.65 0 0 0-.17.32c-3.29 8.38-3.82 10.22-1.03 18.82a1.65 1.65 0 0 0 1.56 1.14 1.55 1.55 0 0 0 .5-.09 1.64 1.64 0 0 0 1.05-2.06c-2-6.07-2.14-8-.63-12.34 2.71 9.61 8.26 16.32 14.15 16.32a4 4 0 0 1 .44 0c5.73 0 11.23-6.71 13.94-16.33 1.51 4.32 1.34 6.26-.63 12.33a1.64 1.64 0 0 0 1.05 2.06 1.55 1.55 0 0 0 .5.09 1.65 1.65 0 0 0 1.56-1.14c2.79-8.6 2.25-10.44-1.07-18.82a1.65 1.65 0 0 0-.17-.32v-.13a31.68 31.68 0 0 0 .32-3.4c3.08 1.49 4.35 4.25 4.3 9.13a1.64 1.64 0 0 0 1.62 1.65 1.64 1.64 0 0 0 1.64-1.62c.1-6.84-2.39-10.93-7.68-12.72zm-15.71-13.67a5.52 5.52 0 0 1 5.11 3.47 28.16 28.16 0 0 0-4.11-.29h-2a28.15 28.15 0 0 0-4.14.29 5.52 5.52 0 0 1 5.14-3.47zm.33 39.63h-.65c-4.43 0-10.29-7.81-12-19.46-.68-5.02-.17-8.52 1.68-10.62s4.93-3 9.67-3h1.97c4.75 0 7.92 1 9.68 3s2.32 5.6 1.62 10.63c-1.68 11.63-7.54 19.45-11.97 19.45z"/></svg>