<svg xmlns="http://www.w3.org/2000/svg" viewBox="-349 351 56 56" enable-background="new -349 351 56 56"><path d="M-293.6 375.5l-3.1-3.3c-.4-.4-.8-.5-1.3-.4h-26.8c-2.4-3.7-6.5-6-11-6-7.3 0-13.2 5.9-13.2 13.2 0 7.3 5.9 13.2 13.2 13.2 4.7 0 8.9-2.4 11.3-6.4h4c.2 0 .4-.1.6-.2l.2-.1c.1-.1.3-.2.4-.4l1.2-1.7h9.1c.1 0 .3 0 .4-.1h.1c.1 0 .2-.1.3-.2h.1l1.7-1.2 1.5 1.2h.1l.3.2h.1l.4.1h6.3c.1 0 .2 0 .4-.1h.1l.3-.1s.1 0 .1-.1c0 0 .1 0 .1-.1.2-.1.3-.2.4-.4l3.1-5.2c.4-.7.2-1.5-.4-1.9zm-42.2 13.7c-5.6 0-10.2-4.6-10.2-10.2s4.6-10.2 10.2-10.2c3.7 0 7 2 8.9 5.1.2.5.8.9 1.3.9h27.3l2 2.1-2.1 3.5h-4.9l-2-1.6s-.1 0-.1-.1c-.1-.1-.2-.1-.3-.1-.5-.2-1-.1-1.3.2h-.1l-2.2 1.6h-8.9c-.4-.1-.8-.1-1.1.1-.4.2-.7.5-.9.9l-1 1.4h-4.4c-.4.1-.8.3-1.1.8-1.8 3.5-5.2 5.6-9.1 5.6zm-4.2-14.1c-2.1 0-3.9 1.8-3.9 3.9 0 2.1 1.7 3.9 3.9 3.9 2.1 0 3.9-1.8 3.9-3.9 0-2.1-1.7-3.9-3.9-3.9zm0 4.8c-.5 0-.9-.4-.9-.9s.4-.9.9-.9.9.4.9.9-.4.9-.9.9z"/></svg>