<svg xmlns="http://www.w3.org/2000/svg" viewBox="0 0 56 56" width="56" height="56" enable-background="new 0 0 56 56"><path d="M29.8 51.5c-7.3 0-14.2-3-18.9-8.3-3.8-4-7.9-11.3-6.7-23.1.1-1.1.3-2.1.6-3.2-1.3-1.9-2.4-3.1-2.5-3.2-.7-.8-.9-2-.5-3s1.3-1.7 2.4-1.8c1.7-.1 3.4-.1 5 0 3-2.9 7-4.5 11.1-4.5 4.2 0 8 1.7 10.4 4.7 1.8 2.2 3.6 6 2.4 11.9-.2 1.2-.4 2.3-.4 3.2 5-.4 10.5-3 10.6-3 1-.5 2.1-.3 3 .3.9.7 1.3 1.8 1 2.8-.4 1.8-.9 3.6-1.6 5.2 2.6-.8 4.5-1.7 4.6-1.7 1-.5 2.1-.3 3 .3.9.7 1.3 1.8 1 2.8-2.6 12.6-12.2 20.6-24.5 20.6zm-16.8-10.3c4.2 4.6 10.3 7.3 16.7 7.3 10.8 0 19.2-7 21.6-17.7-.9.4-4.3 1.9-8.1 2.7-.6.1-1.2-.1-1.5-.6-.3-.5-.4-1.1-.1-1.6 1.2-2.1 2.2-4.5 2.7-7.1-1.3.6-7.7 3.3-13.1 3.2-.8 0-1.4-.6-1.5-1.4-.1-1.6.1-3.4.5-5.5 1-4.8-.4-7.7-1.8-9.4-1.8-2.3-4.8-3.6-8.1-3.6-3.6 0-7 1.5-9.4 4.1-.3.4-.8.5-1.3.5-1.6-.2-3.2-.2-4.9-.1.4.5 1.6 2 2.9 3.8.3.4.3.8.2 1.3-.3 1-.5 2.2-.7 3.3-1 10.7 2.7 17.2 5.9 20.8zm38.6-10.5zm-47-18.9z"/></svg>
