<svg xmlns="http://www.w3.org/2000/svg" viewBox="-349 351 56 56" enable-background="new -349 351 56 56"><path d="M-306.8 398.6h-28.5c-4.5 0-8.3-3.7-8.3-8.3v-14.8c0-4.5 3.7-8.3 8.3-8.3h28.5c4.5 0 8.3 3.7 8.3 8.3v14.8c.1 4.7-3.6 8.3-8.3 8.3zm-28.4-28.3c-2.9 0-5.2 2.3-5.2 5.2v14.8c0 2.9 2.3 5.2 5.2 5.2h28.5c2.9 0 5.2-2.3 5.2-5.2v-14.8c0-2.9-2.3-5.2-5.2-5.2h-28.5zm23.1 0c-.8 0-1.5-.7-1.5-1.5v-3.6c0-1.5-1.2-2.7-2.7-2.7h-9.3c-1.5 0-2.7 1.2-2.7 2.7v3.6c0 .8-.7 1.5-1.5 1.5s-1.5-.7-1.5-1.5v-3.6c0-3.2 2.6-5.7 5.7-5.7h9.3c3.1 0 5.7 2.6 5.7 5.7v3.6c0 .8-.7 1.5-1.5 1.5z"/></svg>