<svg xmlns="http://www.w3.org/2000/svg" viewBox="-111 248 56 56" enable-background="new -111 248 56 56"><path d="M-74.4 282l11 .2c.7 0 1.3-.4 1.6-1 .3-.6.2-1.3-.2-1.8l-6.5-8.8 3.5-10.4c.2-.6.1-1.4-.5-1.8-.5-.5-1.2-.6-1.8-.5l-10.4 3.5-8.8-6.5c-.8-.6-1.9-.4-2.4.4-.2.3-.3.7-.3 1l.2 11-8.9 6.3c-.5.4-.8 1.1-.7 1.7.1.7.6 1.2 1.2 1.4l5.3 1.7-17.6 15.9-.1.1c-1.9 1.9-1.4 5.1.9 7.5 2.3 2.3 5.3 2.7 7.2 1.2.1-.1.2-.2.3-.2.1-.1.2-.2.2-.3l15.6-17.3 1.7 5.3c.1.3.2.5.5.7.7.7 1.8.7 2.5 0 .1-.1.2-.3.3-.5l6.2-8.8zm-32 17.4c-1.1-1.1-1.2-2.1-1-2.5 0 0 .1 0 .1-.1s0-.1.1-.1c.4-.2 1.5-.1 2.5 1s1.2 2.3.9 2.6c-.4.3-1.6.1-2.6-.9zm2.3-5.5l15.8-14.3 1.3.4.4 1.3-14.3 15.8c-.3-.7-.8-1.3-1.4-1.8-.5-.6-1.1-1-1.8-1.4zm27.3-14.6l-4.8 6.8-1.4-4.4c0-.3-.1-.6-.3-.9l-.8-2.6c-.1-.3-.2-.5-.5-.7-.2-.2-.4-.3-.7-.5l-2.6-.8c-.3-.2-.6-.3-.9-.3l-4.4-1.4 6.8-4.8c.5-.3.7-.9.8-1.4l-.1-8.3 6.7 5c.4.4 1.1.5 1.6.2l7.9-2.7-2.7 7.9c-.2.5-.1 1.1.2 1.6l5 6.7-8.3-.1c-.6-.1-1.1.2-1.5.7zm10.9-9.1c.1.4.2.7.5 1 .4.4.9.6 1.5.5l7.4-1.2c.9-.1 1.6-.9 1.5-1.9-.1-.9-.9-1.6-1.9-1.5h-.2l-7.4 1.2c-.9.1-1.5.8-1.4 1.7v.2zm-12.8-13.3c-.1.6.1 1.1.5 1.5.3.3.6.4 1 .5.9.1 1.8-.5 2-1.4l1.1-7.4c.1-.9-.6-1.8-1.5-1.9-.9-.1-1.7.5-1.9 1.4l-1.2 7.3zm-13.6 6.9l-6.8-3.5c-.9-.4-1.9-.1-2.3.8-.4.7-.2 1.5.3 2 .1.1.3.2.5.3l6.8 3.5c.9.4 1.9.1 2.3-.8.4-.8.1-1.8-.8-2.3zm24.7 27.9l-3.3-6.5c-.4-.9-1.5-1.2-2.3-.8-.9.4-1.2 1.5-.8 2.3l3.3 6.5.3.5c.7.7 1.8.7 2.5 0 .5-.6.7-1.4.3-2z"/></svg>