<svg xmlns="http://www.w3.org/2000/svg" width="56" height="56" viewBox="0 0 56 56"><path d="M40.38 9.83c3-.67 5.88-1.34 8.9-2a1.7 1.7 0 0 1 1.68.5 1.91 1.91 0 0 1 .5 1.34c.67 2.86 1.34 5.88 1.85 8.74a1.68 1.68 0 0 1-1.85 1.85 1.6 1.6 0 0 1-1.34-1.34l-1.18-5.38-16.8 25.2a1.73 1.73 0 0 1-2.86-.17l-7.55-15.13c-5.38 8.06-10.58 16-16 24a1.65 1.65 0 0 1-2.35.5 1.52 1.52 0 0 1-.34-2.35l17.14-25.7a2.65 2.65 0 0 1 1.18-1.18 1.67 1.67 0 0 1 2.18.84c2.52 5 5 9.91 7.56 15 5.08-7.55 10.12-15.14 15.16-22.55-1.68.34-3.36.84-5.21 1.18a1.57 1.57 0 0 1-1.85-1.34 1.42 1.42 0 0 1 1.18-2.01z"/></svg>
