<svg xmlns="http://www.w3.org/2000/svg" viewBox="-349 351 56 56" enable-background="new -349 351 56 56"><path d="M-313.1 394.1h-23.9c-.8 0-1.5-.7-1.5-1.5v-12.7c0-.8.7-1.5 1.5-1.5h23.9c.8 0 1.5.7 1.5 1.5v12.7c0 .9-.7 1.5-1.5 1.5zm-22.5-3h20.9v-9.7h-20.9v9.7zm22.5 3c-.2 0-.4 0-.6-.1-.5-.2-.9-.8-.9-1.4v-12.7c0-.4.2-.9.5-1.1l8.2-7c.4-.4 1.1-.5 1.6-.2.5.2.9.8.9 1.4v12.7c0 .4-.2.9-.5 1.1l-8.2 7c-.3.2-.7.3-1 .3zm1.5-13.5v8.8l5.2-4.4v-8.8l-5.2 4.4zm-25.5.8c-.4 0-.8-.2-1.1-.5-.6-.6-.5-1.6.1-2.1l7.5-7c.6-.6 1.6-.5 2.1.1.6.6.5 1.6-.1 2.1l-7.5 7c-.2.3-.6.4-1 .4zm15.6-14.5h-15.6c-.8 0-1.5-.7-1.5-1.5s.7-1.5 1.5-1.5h15.6c.8 0 1.5.7 1.5 1.5s-.7 1.5-1.5 1.5zm-8 7.4c-.4 0-.8-.1-1.1-.4l-7.5-7.4c-.6-.6-.6-1.5 0-2.1s1.5-.6 2.1 0l7.5 7.4c.6.6.6 1.5 0 2.1-.2.3-.6.4-1 .4zm20.2-7.4h-4.7c-.8 0-1.5-.7-1.5-1.5s.7-1.5 1.5-1.5h4.7c.8 0 1.5.7 1.5 1.5s-.7 1.5-1.5 1.5zm2.3 2.2c-.4 0-.7-.1-1-.4l-2.3-2.2c-.6-.6-.6-1.5-.1-2.1.6-.6 1.5-.6 2.1-.1l2.3 2.2c.6.6.6 1.5.1 2.1-.3.3-.7.5-1.1.5zm-5 4.2c-.4 0-.8-.2-1.1-.5-.5-.6-.5-1.6.2-2.1l5-4.2c.6-.5 1.6-.5 2.1.2.5.6.5 1.6-.2 2.1l-5 4.2c-.3.2-.7.3-1 .3zm2-6.4h-4.7c-.8 0-1.5-.7-1.5-1.5s.7-1.5 1.5-1.5h4.7c.8 0 1.5.7 1.5 1.5s-.7 1.5-1.5 1.5zm-7 2.2c-.4 0-.8-.2-1.1-.5-.6-.6-.5-1.5.1-2.1l2.3-2.2c.6-.6 1.5-.5 2.1.1s.5 1.5-.1 2.1l-2.3 2.2c-.2.2-.6.4-1 .4zm5 4.2c-.3 0-.7-.1-1-.4l-5-4.2c-.6-.5-.7-1.5-.2-2.1s1.5-.7 2.1-.2l5 4.2c.6.5.7 1.5.2 2.1-.3.4-.7.6-1.1.6zm-6.4 1h-11.1c-.8 0-1.5-.7-1.5-1.5s.7-1.5 1.5-1.5h11.1c.8 0 1.5.7 1.5 1.5s-.7 1.5-1.5 1.5z"/></svg>