<svg xmlns="http://www.w3.org/2000/svg" viewBox="-349 351 56 56" enable-background="new -349 351 56 56"><path d="M-303.9 363.3c-2.4-2.4-5.6-3.8-9-3.8-2.9 0-5.8 1-8.1 2.8-2.2-1.8-5.1-2.9-8.1-2.9-3.4 0-6.6 1.3-9 3.8-4.7 4.7-5 12.6-.6 18.7 4.6 6.4 16.2 16 16.7 16.4.1.1.3.2.4.2h.1l.4.1c.1 0 .3 0 .4-.1h.1l.4-.2c.5-.4 12.3-10 16.7-16.4 4.6-6 4.3-13.9-.4-18.6zm-1.8 16.9c-3.5 5.1-12.4 12.6-15.2 15-2.9-2.4-11.7-9.9-15.2-15-3.4-4.9-3.3-11.2.3-14.8 1.8-1.8 4.3-2.8 6.9-2.8 2.6 0 5.1 1 6.9 2.8.3.3.8.5 1.2.4.4 0 .9-.1 1.2-.4 1.8-1.8 4.3-2.8 6.9-2.8 2.6 0 5.1 1 6.9 2.8 3.5 3.7 3.6 9.8.1 14.8z"/></svg>