<?xml version="1.0" encoding="utf-8"?>
<!-- Generator: Adobe Illustrator 19.1.0, SVG Export Plug-In . SVG Version: 6.00 Build 0)  -->
<!DOCTYPE svg PUBLIC "-//W3C//DTD SVG 1.1//EN" "http://www.w3.org/Graphics/SVG/1.1/DTD/svg11.dtd">
<svg version="1.1" xmlns="http://www.w3.org/2000/svg" xmlns:xlink="http://www.w3.org/1999/xlink" x="0px" y="0px"
	 viewBox="0 0 540 451" style="enable-background:new 0 0 540 451;" xml:space="preserve">
<style type="text/css">
	.st0{fill:none;}
	.st1{display:none;fill:none;}
</style>
<g id="Layer_2">
	<g id="EHQX9x.tif">
		<image style="overflow:visible;" width="540" height="451" id="Layer_1_2_" xlink:href="D33FED759441E622.png" >
		</image>
	</g>
</g>
<g id="Layer_1">
	<line class="st0" x1="270" y1="848.3" x2="1476" y2="126.7"/>
	<line class="st0" x1="-102" y1="713" x2="1104" y2="-8.6"/>
	<line class="st0" x1="627.5" y1="97.1" x2="627.5" y2="210.3"/>
	<line class="st0" x1="109.3" y1="362.2" x2="109.3" y2="475.5"/>
	<line class="st0" x1="88.7" y1="374.6" x2="88.7" y2="487.8"/>
	<line class="st0" x1="130.7" y1="374" x2="130.7" y2="487.3"/>
	<line class="st0" x1="6.2" y1="329.1" x2="6.2" y2="442.3"/>
	<line class="st0" x1="5.6" y1="305" x2="5.6" y2="418.2"/>
	<polygon class="st0" points="250.2,207.8 250.2,278.1 330.4,230.1 330.4,159.8 	"/>
	<polygon class="st0" points="250.2,254 270,242.2 270,219.7 250.2,231.6 	"/>
	<line class="st0" x1="-173.2" y1="328.7" x2="135.1" y2="499"/>
	<g>
		<polygon class="st0" points="126.9,233.4 209.4,278.9 230.1,266.5 147.6,221 		"/>
	</g>
	<polygon class="st0" points="166.5,161.6 250.2,207.8 330.4,159.8 246.8,113.6 	"/>
	<polygon class="st0" points="209.4,278.9 209.4,302.5 230.1,290.1 230.1,266.5 	"/>
	<polygon class="st0" points="209.4,302.5 209.4,278.9 126.9,233.4 126.9,256.9 	"/>
	<polygon class="st0" points="166.5,161.6 166.5,231.4 230.1,266.5 230.1,290.1 250.2,278.1 250.2,207.8 	"/>
	<polygon class="st0" points="166.5,207.8 250.2,254 250.2,231.6 166.5,185.3 	"/>
	<polygon class="st0" points="188,219.7 229.5,242.6 229.5,220.1 188,197.2 	"/>
	<polygon class="st0" points="166.5,231.4 166.5,208.7 5.6,305 26.9,316.7 6.2,329.1 88.7,374.6 109.3,362.2 130.7,374 370.9,230.4 
		392.2,242.1 433,217.7 390.3,194.1 410.1,182.3 389.7,171 369.8,182.9 330.4,161.1 330.4,230.1 209.4,302.5 126.9,256.9 
		126.9,233.4 147.6,221 	"/>
	<polygon class="st0" points="166.5,254.7 166.5,232 5.6,328.2 26.9,340 6.2,352.3 88.7,397.9 109.3,385.5 130.7,397.3 370.9,253.6 
		392.2,265.4 433,241 390.3,217.4 410.1,205.5 389.7,194.3 369.8,206.1 330.4,184.3 330.4,253.4 209.4,325.8 126.9,280.2 
		126.9,256.7 147.6,244.2 	"/>
	<polygon class="st0" points="166.5,278.1 166.5,255.4 5.6,351.7 26.9,363.4 6.2,375.8 88.7,421.3 109.3,409 130.7,420.8 
		370.9,277.1 392.2,288.9 433,264.5 390.3,240.9 410.1,229 389.7,217.7 369.8,229.6 330.4,207.8 330.4,276.8 209.4,349.2 
		126.9,303.7 126.9,280.1 147.6,267.7 	"/>
	<polygon class="st0" points="6.2,329.1 6.2,399.4 88.7,444.9 88.7,374.6 	"/>
	<polygon class="st0" points="109.3,362.2 109.3,432.6 88.7,444.9 88.7,374.6 	"/>
	<polygon class="st0" points="130.7,374 130.7,444.4 109.3,432.6 109.3,362.2 	"/>
	<polygon class="st0" points="130.7,374 130.7,444.4 392,288 370.9,276.7 370.9,230.4 	"/>
	<polygon class="st0" points="370.9,230.4 391.7,241.9 371.9,253.7 371.9,277.7 370.9,277.1 	"/>
	<polygon class="st0" points="88.7,421.3 88.7,397.9 6.2,352.3 6.2,375.8 	"/>
	<polygon class="st0" points="109.3,385.5 88.7,397.9 88.7,421.3 109.3,409 	"/>
	<polygon class="st0" points="130.7,397.3 130.7,420.8 109.3,409 109.3,385.5 	"/>
	<polygon class="st1" points="370.9,253.6 130.7,397.3 130.7,420.8 370.9,277.1 	"/>
</g>
</svg>
