<svg id="Layer_1" data-name="Layer 1" xmlns="http://www.w3.org/2000/svg" width="90" height="73.7" viewBox="0 0 90 73.7"><title>command-icon</title><path d="M69.8,55.6a4.06,4.06,0,0,1,4.1,4.1,4.12,4.12,0,0,1-4.1,4.1H53.9a4.19,4.19,0,0,1-4.1-4.1,4.12,4.12,0,0,1,4.1-4.1H69.8Z" transform="translate(-5 -13.2)" fill="#003351"/><path d="M42.7,47.1a4.1,4.1,0,0,1,0,5.8L33,62.6a4.1,4.1,0,1,1-5.8-5.8L34,50l-6.8-6.7A4.1,4.1,0,0,1,33,37.5Z" transform="translate(-5 -13.2)" fill="#003351"/><path d="M86.8,71.3V28.7a7.34,7.34,0,0,0-7.3-7.3h-59a7.34,7.34,0,0,0-7.3,7.3V71.4a7.41,7.41,0,0,0,7.3,7.3h59A7.43,7.43,0,0,0,86.8,71.3ZM95,28.7V71.4A15.45,15.45,0,0,1,79.5,86.9h-59A15.6,15.6,0,0,1,5,71.3V28.7A15.45,15.45,0,0,1,20.5,13.2h59A15.45,15.45,0,0,1,95,28.7Z" transform="translate(-5 -13.2)" fill="#003351"/></svg>