<svg xmlns="http://www.w3.org/2000/svg" viewBox="-77 -66 420 420" enable-background="new -77 -66 420 420"><style type="text/css">.st0{opacity:0.1;enable-background:new ;} .st1{fill:url(#SVGID_1_);} .st2{fill:url(#SVGID_2_);} .st3{fill:url(#SVGID_3_);} .st4{fill:url(#SVGID_4_);} .st5{fill:#343433;} .st6{fill:#CECECE;}</style><path class="st0" d="M133.5 223.8l128 64-128 64-128-64 128-64z"/><linearGradient id="SVGID_1_" gradientUnits="userSpaceOnUse" x1="249" y1="164.559" x2="7.162" y2="164.559" gradientTransform="matrix(1 0 0 -1 0 288)"><stop offset=".356" stop-color="#CDCBCA"/><stop offset="1" stop-color="#989897"/></linearGradient><path class="st1" d="M249 8l-23.5-13.5-28 11.2-2-25.7-24-13-27.5 13.5-2.5-27.5-24.4-11.8-109.8 60.5-.1 235.3 26.7 15.6 28.7-16.1-.6 27.5 27.5 14.5 22.3-15.8 1.8 27.4 25.9 15.6 107.5-55.6 2-242.1z"/><linearGradient id="SVGID_2_" gradientUnits="userSpaceOnUse" x1="9.486" y1="205.929" x2="109.706" y2="180.942" gradientTransform="matrix(1 0 0 -1 0 288)"><stop offset="0" stop-color="#fff"/><stop offset="1" stop-color="#CDCCCB"/></linearGradient><path class="st2" d="M62.6 51c0-15.3 0-23 15.3-30.7l61.8-33.7v-15.4c0-15.3 0-23-15.3-15.3l-84.4 46c-15.4 7.6-15.4 15.3-15.4 30.7v198.1c0 7.7 0 23 15.3 15.3l22.6-11.5v-183.5h.1z"/><linearGradient id="SVGID_3_" gradientUnits="userSpaceOnUse" x1="62.801" y1="179.636" x2="163.062" y2="154.638" gradientTransform="matrix(1 0 0 -1 0 288)"><stop offset="0" stop-color="#fff"/><stop offset="1" stop-color="#CDCCCB"/></linearGradient><path class="st3" d="M115.8 77.6c0-15.3 0-23 15.3-30.7l61.9-33.8v-15.6c0-15.3 0-23-15.3-15.3l-84.4 46c-15.3 7.6-15.3 15.3-15.3 30.6v198.1c0 7.7 0 23 15.3 15.3l22.4-11.4.1-183.2z"/><linearGradient id="SVGID_4_" gradientUnits="userSpaceOnUse" x1="383.329" y1="413.095" x2="556.666" y2="369.877" gradientTransform="translate(-281 -238)"><stop offset="0" stop-color="#fff"/><stop offset="1" stop-color="#CDCCCB"/></linearGradient><path class="st4" d="M131.1 85.4c0-15.3 0-23 15.3-30.7l84.4-46c15.3-7.7 15.3 0 15.3 15.3v201.1c0 7.7 0 23-15.3 30.7l-84.4 43c-15.3 7.7-15.3-7.7-15.3-15.3v-198.1z"/><path class="st5" d="M238.5 202.1l-99.7 53.7v-147.4l99.7-53.7v147.4z"/><path class="st6" d="M207 96.5c.4-.2 8.9-4.3 8.9 6.6l.3 82c0 10.9-8.4 15-8.8 15.3l-35.5 17.3c-.4.2-8.9 4.3-8.9-6.6 0-10.9-.3-78.4-.3-82 0-10.9 8.4-15 8.8-15.3l35.5-17.3zm4.7 79.8l-.2-60.1c0-5.5-4.2-3.4-4.5-3.3l-35.5 17.3c-.2.1-4.4 2.2-4.4 7.6 0 2.5.2 49.2.2 60.1 0 5.5 4.2 3.4 4.5 3.3l35.5-17.3c.2 0 4.5-2.1 4.4-7.6"/><path class="st5" d="M253.8 11.8c-.7-5.4-2.6-9.3-5.7-11.7-.6-.6-20-10.1-21.2-10.1-5.2-.7-10.8 1.4-15.2 3.8l-10.7 5.8v-3.7c0-7.4.5-17.3-6.1-22.3-.6-.6-20-10.1-21.2-10.1-5.2-.7-10.7 1.4-15.2 3.8l-10.8 5.9s.5-20.7-6-25.8c-.6-.7-20-10.2-21.3-10.2-5.2-.7-10.7 1.4-15.2 3.8l-84.3 46c-19.6 9.8-19.6 22.1-19.6 37.7v198.1c0 8.2.5 18.2 8.1 23.1.6.6 19.8 10 21.1 10 4.7.7 8.9-1 13.1-2.8l11-5.6s.5 19.8 8.1 24.7c.6.6 19.8 10 21.1 10 4.7.7 8.9-1 13.1-2.8l10.8-5.5s.5 20 8.1 24.9c.6.6 19.8 10 21.1 10 4.7.7 8.9-.9 13.1-2.8l84.4-43c19.7-9.9 19.7-29.5 19.7-37.8v-.2c.1-.1.1-209.5-.3-213.2-.7-5.4.4 3.7 0 0zm-195 29.3l-26.5 14.5v147.4l26.3-14.4v47.7l-18.6 9.5c-2.7 1.4-6 2.6-9.1 1.9l-.5.2-15.3-7.7.5-.2c-6.2-1.6-6.2-11.5-6.2-17.2v-198.1c0-15.3 0-23 15.3-30.7l84.3-46c3.1-1.5 7.6-3.9 11.2-2.7l.3-.2 15.3 7.7-.3.2c4.1 1.5 4.1 8.1 4.1 18v11.1l-63.5 34.7c-13.4 6.7-16.5 14.2-17.3 24.3zm53.2 26.5l-26.4 14.3v147.4l26.1-14.2v47.6l-18.4 9.4c-2.7 1.4-6 2.7-9.1 1.9l-.5.2-15.3-7.7.5-.2c-6.2-1.6-6.2-11.5-6.2-17.2v-198.1c0-15.3 0-23 15.3-30.7l84.4-46c3.1-1.5 7.6-3.9 11.2-2.7l.3-.2 15.3 7.7-.3.2c4.1 1.5 4.1 8.1 4.1 18v11.2l-63.8 34.8c-13.3 6.7-16.5 14.3-17.2 24.3zm134.2 157.5c0 7.7 0 23-15.3 30.7l-84.4 43c-4.1 2.1-7.1 2.4-9.3 1.8l-.3.1-15.3-7.7.5-.2c-6.2-1.6-6.2-11.5-6.2-17.2v-198c0-6.3-.4-13.2 2.2-19 2.5-5.6 7.8-9.1 13.1-11.7l84.4-46c3.1-1.5 7.6-3.9 11.2-2.7l.2-.2 15.3 7.7-.3.1c3.4 1.2 3.7 5.9 4 8.9 0 .4.2 210.4.2 210.4z"/></svg>