<svg xmlns="http://www.w3.org/2000/svg" viewBox="-77 -66 420 420" enable-background="new -77 -66 420 420"><style type="text/css">.st0{opacity:0.1;enable-background:new ;} .st1{fill:url(#SVGID_1_);} .st2{opacity:0.1;fill:#343433;enable-background:new ;} .st3{fill:#343434;} .st4{fill:url(#SVGID_2_);stroke:#343433;stroke-width:3;stroke-linecap:round;stroke-linejoin:round;} .st5{fill:url(#SVGID_3_);} .st6{fill:url(#SVGID_4_);stroke:#343433;stroke-width:3;stroke-linecap:round;stroke-linejoin:round;} .st7{opacity:0.1;fill:#343433;stroke:#F05A29;stroke-width:3;enable-background:new ;} .st8{fill:url(#SVGID_5_);stroke:#F05A29;stroke-width:3;stroke-linecap:round;stroke-linejoin:round;} .st9{fill:#1A1A1A;} .st10{fill:url(#SVGID_6_);} .st11{fill:url(#SVGID_7_);stroke:#343433;stroke-width:3;stroke-linecap:round;stroke-linejoin:round;} .st12{fill:#343433;}</style><path class="st0" d="M101.5 186.3l-138.2 68.8 202.9 98.9 137.6-68.8-202.3-98.9z"/><linearGradient id="SVGID_1_" gradientUnits="userSpaceOnUse" x1="523.772" y1="-166.168" x2="666.583" y2="-166.168" gradientTransform="matrix(1 0 0 -1 -562 -83)"><stop offset="0" stop-color="#fff"/><stop offset="1" stop-color="#CDCBCA"/></linearGradient><path class="st1" d="M104.6-12.1l-29.8-35.7-113 56.6v205.4l142.8-71.4v-154.9z"/><path class="st2" d="M74.8-47.8l29.8 41.7-35.7 17.8 5.9-59.5z"/><path class="st3" d="M25.9 48.7l.2 59.5c.1 18.1-8.4 30.6-20.9 37-11.2 5.7-17.8 1.8-21.1-5.2l11.4-14.4c2.2 3.7 4.3 6.8 9.1 4.4 4.6-2.4 7.5-6.1 7.5-14.8l-.2-59.3c-.1 0 14-7.2 14-7.2z"/><linearGradient id="SVGID_2_" gradientUnits="userSpaceOnUse" x1="631.255" y1="-78.321" x2="654.547" y2="-49.557" gradientTransform="matrix(1 0 0 -1 -562 -83)"><stop offset="0" stop-color="#969796"/><stop offset="1" stop-color="#59595C"/></linearGradient><path class="st4" d="M74.8-47.8l29.8 35.7-29.8 11.9v-47.6z"/><linearGradient id="SVGID_3_" gradientUnits="userSpaceOnUse" x1="623.266" y1="-215.925" x2="766.09" y2="-215.925" gradientTransform="matrix(1 0 0 -1 -562 -83)"><stop offset="0" stop-color="#fff"/><stop offset="1" stop-color="#CDCBCA"/></linearGradient><path class="st5" d="M204.1 37.7l-29.8-35.7-113 56.5v205.4l142.8-71.4v-154.8z"/><path class="st2" d="M174.3 2l29.7 41.7-35.7 17.9 6-59.6z"/><linearGradient id="SVGID_4_" gradientUnits="userSpaceOnUse" x1="730.762" y1="-128.082" x2="754.058" y2="-99.314" gradientTransform="matrix(1 0 0 -1 -562 -83)"><stop offset="0" stop-color="#969796"/><stop offset="1" stop-color="#59595C"/></linearGradient><path class="st6" d="M174.3 2l29.7 35.7-29.7 11.9v-47.6z"/><path class="st7" d="M273.9 51.7l29.8 41.7-35.7 17.9 5.9-59.6z"/><linearGradient id="SVGID_5_" gradientUnits="userSpaceOnUse" x1="830.282" y1="-177.845" x2="853.572" y2="-149.084" gradientTransform="matrix(1 0 0 -1 -562 -83)"><stop offset="0" stop-color="#969796"/><stop offset="1" stop-color="#59595C"/></linearGradient><path class="st8" d="M273.9 51.7l29.8 35.7-29.8 11.9v-47.6z"/><path class="st9" d="M137.7 105.8l21.7-10.6-1.9 11.7-.5.2 1.9-11.7-21.2 10.4z"/><linearGradient id="SVGID_6_" gradientUnits="userSpaceOnUse" x1="722.771" y1="-265.695" x2="865.604" y2="-265.695" gradientTransform="matrix(1 0 0 -1 -562 -83)"><stop offset="0" stop-color="#fff"/><stop offset="1" stop-color="#CDCBCA"/></linearGradient><path class="st10" d="M303.6 87.5l-29.8-35.7-113.1 56.5v205.4l142.8-71.4v-154.8z"/><path class="st3" d="M201.9 144.5l75.9-33.9-10.6 98.5-31.5 24.5-30.6 3.2-3.2-92.3zm60.9-8l-47.6 21.2 1.2 34.3 32.9-14.7-1.7 15.7-10.7 8.3-10.5 1.2-.3-9-9.5 4.3.6 17.8 19.2-2 19.7-15.4 4-37.1-34.6 15.5-.4-11.6 36.3-16.2"/><path class="st2" d="M273.9 51.7l29.8 41.7-35.7 17.9 5.9-59.6z"/><linearGradient id="SVGID_7_" gradientUnits="userSpaceOnUse" x1="830.282" y1="-177.845" x2="853.572" y2="-149.084" gradientTransform="matrix(1 0 0 -1 -562 -83)"><stop offset="0" stop-color="#969796"/><stop offset="1" stop-color="#59595C"/></linearGradient><path class="st11" d="M273.9 51.7l29.8 35.7-29.8 11.9v-47.6z"/><path class="st12" d="M309.7 82.1l-29.7-35.7c-2.3-2.8-6.4-3.7-9.7-2l-58.2 29.1v-36c0-1.9-.7-3.7-1.9-5.1l-29.7-35.8c-2.3-2.8-6.4-3.7-9.7-2l-58.2 29.1v-36c0-1.9-.7-3.7-1.9-5.1l-29.7-35.7c-2.3-2.8-6.4-3.7-9.7-2l-113.1 56.5c-2.7 1.4-4.4 4.1-4.4 7.2v205.4c0 5.8 6.3 9.8 11.6 7.2l87.9-44v86.6c0 5.8 6.3 9.8 11.6 7.2l87.9-44v86.6c0 5.8 6.3 9.8 11.6 7.2l142.8-71.4c2.7-1.4 4.4-4.1 4.4-7.2v-155c0-1.8-.7-3.6-1.9-5.1zm-249.1-25.1c-.5.3-.8.8-.8 1.3v4.9c-2.3-.1-5.6-.1-7.2-2.2-1.7-2.3-1-6.1 0-8.5 1.4-3.3 4.1-6 7.6-7.1 3.3-1 5.6.9 7.2 3.6l10.9-14.3c-2.1-3.6-5.3-6.4-9.7-6.6-4.6-.2-9.4 2-13.2 4.5-8.2 5.2-14.2 13.9-16.6 23.3-.9 3.7-1.3 7.6-1 11.4.2 3.2.9 6.5 2.7 9.2 3.1 4.7 8.9 5.7 14.2 5.8l3.5.1 1.5.1v19.4c-2.6 1.5-5.8 2.6-8.8 1.8-2.5-.7-4.4-2.8-5.8-4.9l-11.4 14c2 3.9 5.3 6.9 9.6 7.9 5.5 1.3 11.7-.6 16.4-3.3v46.1l-96.5 48.3v-202.3l111.2-55.6 28.6 34.4v47.5l-42.4 21.2zm98.8 38l-1.9 11.7-56.2 27.5-2.9 18.1 56.2-27.4-3.3 20.7-22.8 20.2h-.2l-.3.2-19.5.5 1.4-8.9-13.3 6.4-3.5 21.7 32.1-.8 34.1-30.3v58.4l-96.5 48.3v-202l111.1-55.7 28.7 34.4v47.5l-32 16 5-31.1-69.5 34-2.9 18.1 56.2-27.5zm142.7 146.1l-139.8 69.9v-202l111.2-55.6 28.6 34.4v153.3z"/></svg>