<svg xmlns="http://www.w3.org/2000/svg" viewBox="-77 -66 420 420" enable-background="new -77 -66 420 420"><style type="text/css">.st0{opacity:0.1;enable-background:new ;} .st1{fill:url(#SVGID_1_);} .st2{fill:url(#SVGID_2_);} .st3{opacity:0.1;fill:#343433;enable-background:new ;} .st4{fill:url(#SVGID_3_);} .st5{fill:url(#SVGID_4_);} .st6{fill:url(#SVGID_5_);} .st7{fill:url(#SVGID_6_);} .st8{fill:url(#SVGID_7_);} .st9{fill:#343434;} .st10{fill:#343433;}</style><path class="st0" d="M130.8 183.5l-168.7 84.1 173.7 84.1 168.1-84.1-173.1-84.1z"/><linearGradient id="SVGID_1_" gradientUnits="userSpaceOnUse" x1="531.944" y1="-159.609" x2="860.9" y2="-159.609" gradientTransform="matrix(1 0 0 -1 -562 -83)"><stop offset="0" stop-color="#E4E4E4"/><stop offset="1" stop-color="#B3B1B3"/></linearGradient><path class="st1" d="M-30.1 78l164.5-84.2 164.5 81.3-164.4 84.4-164.6-81.5z"/><linearGradient id="SVGID_2_" gradientUnits="userSpaceOnUse" x1="24.288" y1="196.72" x2="244.672" y2="196.72" gradientTransform="matrix(1 0 0 -1 0 288)"><stop offset="0" stop-color="#fff"/><stop offset="1" stop-color="#CDCBCA"/></linearGradient><path class="st2" d="M219.6 6.1l-25.1 12.5v-7.5l-25-30.1-25 12.5v-7.5l-25-30.1-95.2 47.7v172.9l100.2 50.1 120.2-60.1v-130.3l-25.1-30.1z"/><path class="st3" d="M119.4-44l25 35.1-30.1 15 5.1-50.1z"/><linearGradient id="SVGID_3_" gradientUnits="userSpaceOnUse" x1="676.756" y1="-75.287" x2="696.361" y2="-51.077" gradientTransform="matrix(1 0 0 -1 -562 -83)"><stop offset="0" stop-color="#969796"/><stop offset="1" stop-color="#59595C"/></linearGradient><path class="st4" d="M119.4-44l25 30.1-25 10v-40.1z"/><path class="st3" d="M169.5-19l25 35.1-30 15 5-50.1z"/><linearGradient id="SVGID_4_" gradientUnits="userSpaceOnUse" x1="726.844" y1="-100.338" x2="746.453" y2="-76.122" gradientTransform="matrix(1 0 0 -1 -562 -83)"><stop offset="0" stop-color="#969796"/><stop offset="1" stop-color="#59595C"/></linearGradient><path class="st5" d="M169.5-19l25 30.1-25 10v-40.1z"/><path class="st3" d="M219.6 6.1l25 35.1-30.1 15 5.1-50.1z"/><linearGradient id="SVGID_5_" gradientUnits="userSpaceOnUse" x1="776.942" y1="-125.389" x2="796.546" y2="-101.18" gradientTransform="matrix(1 0 0 -1 -562 -83)"><stop offset="0" stop-color="#969796"/><stop offset="1" stop-color="#59595C"/></linearGradient><path class="st6" d="M219.6 6.1l25 30.1-25 10v-40.1z"/><linearGradient id="SVGID_6_" gradientUnits="userSpaceOnUse" x1="716.167" y1="-217.923" x2="837.214" y2="-323.146" gradientTransform="matrix(1 0 0 -1 -562 -83)"><stop offset=".356" stop-color="#CDCAC8"/><stop offset="1" stop-color="#969796"/></linearGradient><path class="st7" d="M294.9 77.3v140.2l-160.4 80.2v-140.1l160.4-80.3z"/><linearGradient id="SVGID_7_" gradientUnits="userSpaceOnUse" x1="536.062" y1="-270.524" x2="696.469" y2="-270.524" gradientTransform="matrix(1 0 0 -1 -562 -83)"><stop offset="0" stop-color="#fff"/><stop offset="1" stop-color="#E4E4E4"/></linearGradient><path class="st8" d="M-25.9 77.3v140.2l160.4 80.2v-140.1l-160.4-80.3z"/><path class="st9" d="M241.3 122.4c.4-.2 9-4.4 9 6.7 0 11 .2 71.7.3 82.7 0 11-8.5 15.2-8.9 15.4l-35.8 17.4c-.4.2-9 4.4-9-6.7 0-11-.3-79.2-.3-82.7 0-11 8.5-15.2 8.9-15.4l35.8-17.4zm4.7 80.6c0-11-.2-49.6-.2-60.7 0-5.5-4.3-3.4-4.5-3.3l-35.8 17.4c-.2.1-4.5 2.2-4.5 7.7 0 2.5.2 49.6.2 60.7 0 5.5 4.3 3.4 4.5 3.3l35.8-17.4c.3-.1 4.5-2.2 4.5-7.7"/><path class="st10" d="M298.4 67.9l-45.7-22v-9.7c0-1.9-.7-3.7-1.9-5.1l-25-30.1c-2.3-2.8-6.4-3.7-9.7-2l-15 7.5c-.1-.2-25.4-30.5-25.4-30.5-2.3-2.8-6.4-3.7-9.7-2l-15 7.5c-.1-.2-25.4-30.5-25.4-30.5-2.3-2.8-6.4-3.7-9.7-2l-95.2 47.4c-2.7 1.4-4.4 4.1-4.4 7.2v44.3l-45.9 23c-2.7 1.4-4.4 4.1-4.4 7.2v140.1c0 3.1 1.8 5.9 4.5 7.2l160.5 77.3c2.2 1.1 4.9 1 7.1-.1l160.4-80.2c2.7-1.4 4.4-4.1 4.4-7.2v-140.1c0-3.1-1.8-5.9-4.5-7.2zm-56.2-32.4l-21.1 8.5v-33.8l21.1 25.3zm-71.2-50.3l21.1 25.3-21.1 8.4v-33.7zm-3-1.7v37.7c0 1 1.1 1.8 2.1 1.4l23-9.2v4.4l-69.3 34.7c-.5.3-.8.8-.8 1.3v8.4l-10.8 5.3-2.5 15.2 13.3-6.5v9.1l-14.9 7.3-2.4 15.2 17.3-8.5v20.1l-8.9.2 1.2-7.5-11.2 5.5-2.9 18.3 21.8-.5v14.8l-47.1-23.6v-97l92.1-46.1zm-47.1-23.4l21.1 25.3-21.1 8.4v-33.7zm-95.1 44.4l92.2-46.1v37.7c0 1 1.1 1.8 2.1 1.4l23-9.2v4.4l-69.4 34.6c-.5.3-.8.8-.8 1.3v11.4l-6.5 3.3.2 49.9c0 4-.8 8.3-4 11-1.6 1.3-4 2.8-6.2 2-1.8-.7-2.8-2.6-3.7-4.2l-7.4 9.3-19.5-9.7v-97.1zm47.1 103.2v17.4l-12.6-6.3c5.1-2.5 9.5-6.4 12.6-11.1zm-56.6-50.9v39.9l-39.9-20 39.9-19.9zm116.7 237.9l-30.8-14.8-126.6-63.4v-136.7l157.4 78.7v136.2zm1.5-138.8l-8.5-4.3v-97l92.2-46.1v37.7c0 1 1.1 1.8 2.1 1.4l23-9.2v63.2l-26.6 13.3 6.4-59.1-64.1 28.4 2 58.4-26.5 13.3zm44.5-44.8l29.1-13-2.4 22.2-8.1 4 1.4-12.5-27.7 12.4-1-28.8 40.1-17.9-1.1 10.2-30.6 13.6.3 9.8zm.7 22.2l-8 4-.3-8.3 8-3.6.3 7.9zm113.7 82.7l-157.4 78.7v-136.2l157.4-78.7v136.2zm-40.7-119.2v-42l42.2 20.3-42.2 21.7z"/></svg>