<svg id="Layer_1" data-name="Layer 1" xmlns="http://www.w3.org/2000/svg" width="23.2" height="14.6" viewBox="0 0 23.2 14.6"><defs><style>.cls-1{fill:#999}</style></defs><title>filter</title><path class="cls-1" d="M23.2 1.2a.32.32 0 0 1-.3.3H.3a.27.27 0 0 1-.3-.3v-1A.25.25 0 0 1 .3 0h22.6a.32.32 0 0 1 .3.3v.9zm-2.8 3.4a.32.32 0 0 0-.3-.3H3a.32.32 0 0 0-.3.3v1a.32.32 0 0 0 .3.3h17.2a.32.32 0 0 0 .3-.3 3.4 3.4 0 0 1-.1-1zm-2.7 4.3a.32.32 0 0 0-.3-.3H5.7a.32.32 0 0 0-.3.3v1a.32.32 0 0 0 .3.3h11.8a.32.32 0 0 0 .3-.3 3.4 3.4 0 0 1-.1-1zM15 13.3a.32.32 0 0 0-.3-.3H8.4a.32.32 0 0 0-.3.3v1a.32.32 0 0 0 .3.3h6.4a.32.32 0 0 0 .3-.3l-.1-1z"/></svg>