<svg xmlns="http://www.w3.org/2000/svg" viewBox="-669 23 30 30" enable-background="new -669 23 30 30"><path d="M-651.3 46h-5.4c-.6 0-1.2-.5-1.2-1.2s.5-1.2 1.2-1.2h5.4c.6 0 1.2.5 1.2 1.2s-.6 1.2-1.2 1.2zM-654.3 36.1h-2.4c-.6 0-1.2-.5-1.2-1.2s.5-1.2 1.2-1.2h2.4c.6 0 1.2.5 1.2 1.2s-.6 1.2-1.2 1.2zM-654 45.6c-.6 0-1.2-.5-1.2-1.2v-9.4c0-.6.5-1.2 1.2-1.2s1.2.5 1.2 1.2v9.4c0 .6-.6 1.2-1.2 1.2z"/><circle cx="-654.1" cy="31.2" r="1.5"/><path d="M-654 53c-8.3 0-15-6.7-15-15s6.7-15 15-15 15 6.7 15 15-6.7 15-15 15zm0-27.7c-7 0-12.7 5.7-12.7 12.7s5.7 12.7 12.7 12.7 12.7-5.7 12.7-12.7-5.7-12.7-12.7-12.7z"/></svg>