<?xml version="1.0" encoding="utf-8"?>
<!-- Generator: Adobe Illustrator 19.0.1, SVG Export Plug-In . SVG Version: 6.00 Build 0)  -->
<!DOCTYPE svg PUBLIC "-//W3C//DTD SVG 1.1//EN" "http://www.w3.org/Graphics/SVG/1.1/DTD/svg11.dtd">
<svg version="1.1" id="Your_Icon" xmlns="http://www.w3.org/2000/svg" xmlns:xlink="http://www.w3.org/1999/xlink" x="0px" y="0px"
	 viewBox="-669 23 30 30" style="enable-background:new -669 23 30 30;" xml:space="preserve">
<g>
	<path d="M-651.3,46h-5.4c-0.6,0-1.2-0.5-1.2-1.2s0.5-1.2,1.2-1.2h5.4c0.6,0,1.2,0.5,1.2,1.2S-650.7,46-651.3,46z"/>
</g>
<g>
	<path d="M-654.3,36.1h-2.4c-0.6,0-1.2-0.5-1.2-1.2s0.5-1.2,1.2-1.2h2.4c0.6,0,1.2,0.5,1.2,1.2S-653.7,36.1-654.3,36.1z"/>
</g>
<g>
	<path d="M-654,45.6c-0.6,0-1.2-0.5-1.2-1.2V35c0-0.6,0.5-1.2,1.2-1.2s1.2,0.5,1.2,1.2v9.4C-652.8,45-653.4,45.6-654,45.6z"/>
</g>
<g>
	<circle cx="-654.1" cy="31.2" r="1.5"/>
</g>
<g>
	<path d="M-654,53c-8.3,0-15-6.7-15-15s6.7-15,15-15s15,6.7,15,15S-645.7,53-654,53z M-654,25.3c-7,0-12.7,5.7-12.7,12.7
		s5.7,12.7,12.7,12.7s12.7-5.7,12.7-12.7S-647,25.3-654,25.3z"/>
</g>
</svg>
