<svg xmlns="http://www.w3.org/2000/svg" width="240" height="164" viewBox="0 0 240 164"><path fill="#fff" d="M237.9 143.3c0-.1 0-.1-.1-.2-.1-.3-.2-.6-.4-.8v-.1c-.2-.3-.4-.5-.7-.7 0 0 0-.1-.1-.1l-25.6-20.6v-106.8c0-7.5-6.1-13.6-13.6-13.6h-154.8c-7.5 0-13.6 6.1-13.6 13.6v106.8l-25.6 20.6s0 .1-.1.1c-.2.2-.5.4-.7.7v.1c-.2.3-.3.5-.4.8 0 .1 0 .1-.1.2-.1.3-.1.6-.1.9v5.2c0 7.5 6.1 13.6 13.6 13.6h208.8c7.5 0 13.6-6.1 13.6-13.6v-5.2c0-.3 0-.6-.1-.9zm-201.8-129.3c0-3.6 2.9-6.5 6.5-6.5h154.9c3.6 0 6.5 2.9 6.5 6.5v105h-167.9v-105zm-2.3 112.1h172.5l18.1 14.6h-208.7l18.1-14.6zm197.1 23.3c0 3.6-2.9 6.5-6.5 6.5h-208.7c-3.6 0-6.5-2.9-6.5-6.5v-1.6h221.8v1.6zm-108.3-137.5c.7.7 1 1.6 1 2.5 0 .9-.4 1.8-1 2.5-.7.7-1.6 1-2.5 1-.9 0-1.9-.4-2.5-1-.7-.7-1-1.6-1-2.5s.4-1.8 1-2.5c1.3-1.3 3.6-1.3 5 0zm-27.6 61.6h50v16.4c0 1.8-1.5 3.3-3.3 3.3h-43.3c-1.8 0-3.3-1.5-3.3-3.3v-16.4zm50-26.9v17.3h-7.7v7.1h-6.9v-7.1h-20.7v7.1h-6.9v-7.1h-7.8v-17.3c0-1.8 1.5-3.3 3.3-3.3h43.3c1.9-.1 3.4 1.4 3.4 3.3zm95 117.4h-240v-164h240v164z"/></svg>