<svg xmlns="http://www.w3.org/2000/svg" width="110" height="270" viewBox="0 0 110 270"><path fill="#fff" d="M97.5.2h-85.1c-6.2 0-11.6 5.1-11.6 11.6v181.5c0 6.2 5.1 11.6 11.6 11.6h34.5v9.5c0 1.8 1.2 3 3 3h2.1v21.1h5.9v-21.1h2.1c1.8 0 3-1.2 3-3v-9.5h34.5c6.2 0 11.3-5.1 11.3-11.6v-181.5c.3-6.5-4.7-11.6-11.3-11.6zm5.7 193.1c0 3-2.4 5.4-5.4 5.4h-85.1c-3 0-5.4-2.4-5.4-5.4v-181.5c0-3 2.4-5.4 5.4-5.4h85.1c3 0 5.4 2.4 5.4 5.4v181.5zm-48.2-27.1c-7.1 0-12.8 5.7-12.8 12.8s5.7 12.8 12.8 12.8c7.1 0 12.8-5.7 12.8-12.8.3-7.1-5.7-12.8-12.8-12.8zm0 19.7c-3.9 0-6.8-3-6.8-6.8s3-6.8 6.8-6.8 6.8 3 6.8 6.8c.3 3.8-3 6.8-6.8 6.8zm-2.1-172.6c-.6-.6-.9-1.2-.9-2.1 0-.9.3-1.5.9-2.1 1.2-1.2 3-1.2 4.2 0 .6.6.9 1.2.9 2.1 0 .9-.3 1.5-.9 2.1-.6.6-1.2.9-2.1.9-.6 0-1.5-.6-2.1-.9zm15.2 6c0 1.5-1.2 3-3 3h-19.7c-1.8 0-3-1.5-3-3s1.2-3 3-3h19.6c1.6 0 3.1 1.5 3.1 3zm-16.1 224.9h5.9v9.5h-5.9v-9.5zm0 15.1h5.9v7.4c0 1.8-1.2 3-3 3s-3-1.2-3-3c.1.1.1-7.1.1-7.4zm-21.7-162.9h50v16.4c0 1.8-1.5 3.3-3.3 3.3h-43.4c-1.8 0-3.3-1.5-3.3-3.3v-16.4zm50-26.9v17.3h-7.7v7.1h-6.9v-7.1h-20.8v7.1h-6.9v-7.1h-7.7v-17.3c0-1.8 1.5-3.3 3.3-3.3h43.3c1.9-.1 3.4 1.4 3.4 3.3z"/></svg>