<svg xmlns="http://www.w3.org/2000/svg" width="178" height="206" viewBox="-391 179 178 206" enable-background="new -391 179 178 206"><path d="M-369.1 224.5c.3 0 .5-.3.5-.5l-.9-9.3c0-.3-.3-.5-.5-.4-.3 0-.5.3-.4.5l.9 9.3c-.1.2.1.4.4.4zm127.9-6.9c.1.2.3.4.5.4h.1c.3-.1.4-.4.3-.6l-2.5-8.8c-.1-.3-.3-.4-.6-.3-.3.1-.4.4-.3.6l2.5 8.7zm-138.9 24.2c0-.3-.2-.5-.5-.5h-9.3c-.3 0-.5.2-.5.5s.2.5.5.5h9.3c.3-.1.5-.3.5-.5zm149-25.4h.2c.2 0 .4-.1.5-.3l2.8-7.5c.1-.3 0-.5-.3-.6-.3-.1-.5 0-.6.3l-2.8 7.5c-.2.2 0 .5.2.6zm-27.1 9.4l9.8 4.1h.2c.2 0 .4-.1.5-.3.1-.3 0-.5-.3-.7l-9.8-4.1c-.3-.1-.5 0-.7.3-.1.3.1.6.3.7zm-121 4.6c.1.1.2.1.3.1.2 0 .3-.1.4-.2.2-.2.1-.5-.1-.7l-10.7-7.5c-.2-.2-.5-.1-.7.1-.2.2-.1.5.1.7l10.7 7.5zm123.2 6.8c-.3.1-.4.3-.4.6 0 .2.3.4.5.4h.1l6.2-1.2c.3-.1.4-.3.4-.6-.1-.3-.3-.4-.6-.4l-6.2 1.2zm-97.8 12.2c0 .3.2.5.5.5l4.5.2c.3 0 .5-.2.5-.5s-.2-.5-.5-.5l-4.5-.2c-.2 0-.5.3-.5.5zm-3-19.9c.2 0 .3-.1.4-.2l3.8-5.1c.2-.2.1-.5-.1-.7s-.5-.1-.7.1l-3.8 5.1c-.2.2-.1.5.1.7l.3.1zm1.7 10.3c0 .2.3.4.5.4h.1l5-.8c.3 0 .5-.3.4-.6 0-.3-.3-.5-.6-.4l-5 .8c-.3.1-.4.4-.4.6zm-24.1 10.7c-.1-.2-.4-.3-.7-.2l-3.8 2c-.2.1-.3.4-.2.7.1.2.3.3.4.3.1 0 .2 0 .2-.1l3.8-2c.4-.1.5-.4.3-.7zm10.8 2.3h1.2c2.9-.1 4.8-.6 5.8-1.7.6-.7.9-1.6.8-2.6-1.1-13.6-2.1-14.1-2.6-14.3-1.7-1-4.2-1.2-7.4-.7-1.9.3-4.2.9-4.5 2.8v.1l2.1 15c.3 1 1.6 1.4 4.6 1.4zm131.8-9c1.7 0 3.4-.7 4.9-2 .1-.1.2-.2.2-.4v-16.2c0-.3-.2-.5-.5-.5h-9.8c-.3 0-.5.2-.5.5v16.2c0 .2.1.3.2.4 2 1.4 3.8 2 5.5 2zm20.5-6.8h-6.8c-.3 0-.5.2-.5.5s.2.5.5.5h6.8c.3 0 .5-.2.5-.5s-.2-.5-.5-.5zm2.5-13c-.1-.3-.4-.4-.6-.3l-9.5 3.3c-.3.1-.4.4-.3.6.1.2.3.3.5.3h.2l9.5-3.3c.1-.1.3-.4.2-.6zm-66.4 64.2v-15.8l-.1-.4-1-1c-.2-.2-.5-.2-.7 0h-6.5c-.1-.1-.2-.1-.3-.1s-.2 0-.3.1h-6.4c-.1-.1-.2-.1-.3-.1h-20.2c-.3 0-.5.2-.5.5v15.7c0 .1 0 .3.1.4l1 1c.1.1.2.1.4.1h34.3c.3.1.5-.2.5-.4zm-28.3-8.5h5.5v7h-5.4l-.1-7zm19.2 7h-6v-7h6v7zm-7 0h-5.7v-6.9h5.7v6.9zm14.1 0h-6.1v-7h6.1v7zm-7.1-8h-6v-6.7h6v6.7zm-7 .1h-5.7v-6.9h5.7v6.9zm-6.7-.1h-5.5l-.1-6.8h5.6v6.8zm-6.4 8h-6.1v-6.9h6l.1 6.9zm27.2-8h-6.1v-6.7h6.1v6.7zm-27.4-6.8l.1 6.9h-6v-6.9h5.9zm87.3-30.7c-2.7-.6-4.8-.6-6.5 0v-14.3c.2-3-1.1-4.9-3.7-5.2h-8.8c-2 0-3.3 1.1-3.7 3.3v13l-7.4 2.3c-.2.1-.3.2-.3.4-.7 3.7-.7 8.2 0 13.7 0 .1 0 .1.1.2 1.9 3.2 4.6 5.3 8 6.4-.1.4-.3.8-.3.9l-.1.1c-.2.2-.4.4-.7.6l-.3.2c-.5.4-.9.7-1.3 1 0 0-.1 0-.1.1l-.3.2-.4.2c-1.7 1-3.2 1.7-4.7 2.1l-.7.2c-2.1.6-4.5 1-7.2 1h-.4c-1.3 0-2.7-.1-4.4-.4v-.8c0-.2-.1-.4-.3-.5l-3.4-1.6s0-.1-.1-.1v-46.2c0-.1-.1-.3-.2-.4l-6.8-5.6c-.2-.1-.4-.2-.6 0h-12.1c-2-3.1-4.5-4.9-7.4-5.3h-.2l1.6-1.5c.1-.1.2-.2.2-.4 0-.1-.1-.3-.2-.4-5-4.1-5.5-5.7-5.2-6.4l5.5-1.8c.2-.1.3-.2.3-.4.1-1-1-2.2-3.4-3.5.1-.6.4-1.6 1.2-3.6.4.1.9.2 1.3.2 1.2 0 2.2-.4 3.2-1.3.9-.9 1.3-2 1.3-3.3 0-1.3-.5-2.4-1.4-3.2-.8-.9-1.9-1.4-3.2-1.4-1.2 0-2.4.5-3.3 1.4-.8.9-1.2 2-1.2 3.2 0 1.4.4 2.4 1.2 3.3.3.3.7.6 1.1.8-.9 2-1.3 3.4-1.3 4.3 0 .2.1.4.3.4 2 1.1 2.9 1.9 3.1 2.4l-5.3 1.8c-.1 0-.2.1-.3.2-1.1 1.5.4 3.8 4.8 7.5l-1.9 1.8c-4.4-.2-7.7 1.6-9.5 5.3h-15.5l-.4.1c-.3.3-.9.9.8 51.4-.8.9-1.5 1.8-2.1 2.7-1.2 1.7-1.7 2.6-1.9 3.2-2.2.6-3.9 1-5.5 1.2-2.8.3-5.7.1-8.6-.6-2-.4-4.1-1.2-6.9-2.5-.6-.3-1.3-.6-2-1 2.1-1.6 3.4-4.6 3.9-8.7 0-.1 0-.3-.1-.4l-4.5-4.8c-.1-.1-.2-.2-.4-.2h-6.2l-2.2-17.3c-.5-4.4-3.8-6.4-9.8-5.9-7.4.5-8.8 3.5-8.7 5.9l2.5 20.8h-4.4c-.1 0-.3.1-.4.2-.1.1-.1.2-.1.4.4 12.9 1.9 15.2 3 15.7 2.7 1.6 8.8 1.8 18.5.7h.6l-.6 1.2c-.1.2-.1.4.1.6l1.1 1.2 1 1.1c1.2 1.2 2.4 2.3 3.6 3.3 2.6 2.2 5.2 3.9 8.1 5.3.1.1.1.2.2.2 3.5 1.6 7 2.4 10.4 2.5.1 0 .2 0 .3-.1 2.5.1 4.8-.2 7.3-.9.5 1.3 1.1 2.3 1.8 3.3 1.2 1.6 2.1 2.5 3.2 2.8.2 6.4.5 13.1.7 20.2 0 .2.2.4.4.5.9.2 1.8.3 2.7.4-.5 4.8-.6 12.2-.1 23.3l.2 21.4-9.3 13c-.1.1-.2.2-.3.4v5.1c0 .2.2.5.4.5l19.3 2.8c.2 0 .4 0 .5-.2l12-16.3c.8-1.6.9-4.2.1-8 .1-.2.1-.5-.1-.6l-2.7-17.2c0-.2 0-.4-.1-.6-.8-7.1-.8-14.7-.1-22.6h4.1c-.8 9-.8 17 .1 23.6l1.7 23.2-8 13.7c-.1.1-.3.2-.3.4v4.8c0 .2.2.5.4.5l18.6 3.2h.1c.2 0 .3-.1.4-.2l12.1-17.5c1.4-2.1 1.4-5.5.1-10.3-.9-3.3-1.8-6.7-2.7-10.3-.6-2.3-1.2-4.6-1.8-7v-.3c0-.1 0-.2-.1-.3v-.4c0-.1 0-.2-.1-.2l-.1-.2c-.6-7.9-.3-16.8.9-26.2l3.2-2.1c.1-.1.2-.2.2-.4v-17.9c1.5-.8 2.7-2.3 3.6-4.2 3.2.2 5.6.2 7.6.1 3.8-.3 7.3-1.1 10.4-2.4 3.8-1.7 7.2-4.4 9.6-7.8 1.7-2.3 3.2-5.2 4.2-8.3.3-.8.5-1.6.7-2.6 0-.2 0-.4-.2-.5l-1.4-1.1c4.5.7 8.1-.8 10.8-4.2l.1-.2c1.7-6.2 2.4-12.2 2.1-18.4-.2-.7-.4-.9-.6-.9zm-74.2-60.5c1.3.2 2 .9 2 2 0 .3-.1.7-.4 1.1-.4.5-.9.8-1.6.8-.8 0-1.4-.3-1.7-.9-.2-.3-.3-.7-.3-1.1.2-.4.4-.7.7-1.1.4-.4.8-.7 1.3-.8zm-61.5 72.5c.1.1.2.1.3.1h6.3c1.8 5 1.1 8.5-2.1 10.9-.1-.1-.2-.1-.3-.1-.2 0-.3.1-.4.3l-.1.3-.2.1c-.2-.3-.4-.6-.7-.8-.8-.8-1.8-1.3-2.9-1.4.7-1.3 1-3.1.6-5.4l-.1-.6v-.6l-.1-.5c-.1-.7-.3-1.5-.5-2.3h.2zm-18.9-18.4c-.2-2.8 2.4-4.4 7.7-4.8 5.4-.4 8.3 1.3 8.8 5.1l2.1 17h-.6c-.2 0-.3.1-.4.2-.1.1-.1.3-.1.5.3 1 .5 2 .7 2.8l.1.4v.1c-.5.7-1.5 1.2-2.8 1.4-4.3.6-7.9.8-10.3.5-1.2-.2-1.9-.5-2.4-1.1l-.1-.2-.2-.7-2.5-21.2zm14 29.8c-3.1 0-5.5-1.8-7.4-5.4 2.3.1 5.4-.1 9-.6 1.1-.2 2.1-.5 2.8-1.1.3 2.3 0 4-.8 5-1.3.1-2.3.6-3.2 1.5l-.4.6zm-13.9 6.5c-.8-.3-2.1-2.6-2.5-14.3h4.1l.1.4c0 .1 0 .1.1.2l.1.1c1.9 6.3 5.8 9.1 11.5 8.3-.2.5-.3 1.2-.3 1.8 0 1.4.5 2.6 1.4 3.6.3.3.6.6 1 .8-8 .7-13.2.4-15.5-.9zm17.9.5c-1 0-1.8-.4-2.6-1.3-.8-.8-1.2-1.7-1.2-2.8 0-.6.1-1.5.6-2.2.1-.1.1-.2.1-.3l.4-.5c.6-.6 1.4-1 2.4-1.1l.3.1h.2c1.2 0 2 .4 2.8 1.2.3.3.6.6.8 1 .1.1.1.3.1.3v.1l-2.6 5.3-1.3.2zm5.9 7.1c-1-.8-1.9-1.7-2.8-2.7l-.8-.8 4.9-8.7.6.3.2.1c.7.4 1.4.8 2.1 1.1-2.4 4.5-3.8 8.1-4.2 10.7zm8.1 5.5c-2.5-1.3-4.9-2.8-7.2-4.7.3-2.5 1.6-6.2 4.1-11.1 2.4 1.1 4.4 1.8 6.2 2.2-1.9 4.5-2.9 9-3.1 13.6zm10.1 2.8c-3-.2-6-.9-9.1-2.3.1-4.7 1.1-9.3 3.1-13.9 2.7.6 5.3.8 7.8.6-1.6 6.5-2.2 11.7-1.8 15.6zm8-.9c-2.3.6-4.6.9-7 .9-.5-3.9.1-9.1 1.9-15.7 1.5-.2 3.1-.5 5.1-1.1v15.9zm33.7 52.1c-.8-6.6-.8-14.4 0-23.2 3.9-.1 8.1-.3 13.2-.8l.8-.1c-.9 10.1-1.1 18.4-.6 24.7l-.2.3c-5.8 1.1-10.2.8-13.2-.9zm18.4.7c-.1.6-.3.9-.7 1.3-.4.4-.8.7-1.4.7-.6 0-1.1-.2-1.4-.6l-.3-.5s-.1-.1-.1-.2.1-.2 0-.3v-.1l.1-.2v-.3c.1-.6.3-1.1.6-1.3.4-.4.8-.6 1.4-.6.6 0 1.1.2 1.4.6.2.2.3.4.4.6v.3l.1.3c-.1.1-.1.2-.1.3zm-48.1-126.1h15.2c.1.1.2.1.3.1h30v50c-15.7 1-30.7 1-44.5 0-1.2-37.6-1.3-48.3-1-50.1zm-1.3 77c-.6-.9-1.2-2-1.7-3.2v-17.1c.1-.3.4-1 1.7-2.9l1.3-1.7c.3 8.1.6 17.2 1 27.2-.7-.4-1.4-1.1-2.3-2.3zm7.3 68.7l-.2-20.4c2.2 1 4.9 1.5 8.2 1.5 1.8 0 3.8-.2 6-.5l2.5 21.8-16.5-2.4zm17.9-20c0 .4-.1.8-.4 1-.3.3-.6.5-.9.5-.4 0-.8-.2-1-.5-.3-.3-.4-.5-.4-1 0-.4.1-.7.4-.9.3-.3.6-.5 1-.5s.7.1.9.5l.3.4.1.5zm-4.1-.4c-6.1.9-10.9.5-14.1-1.1-.4-10.8-.3-18.1.2-22.8l1.7.2c3.4.3 6.8.5 10.3.6h2c-1 8.1-1.1 15.7-.1 23.1zm-14 21.4l16.4 2.4-7.3 12.9-18.1-2.8 9-12.5zm-9.4 17.5v-4.1l18.3 2.8v3.9l-18.3-2.6zm28.1-62.8c-.1-.1-.2-.2-.4-.2h-6.1c-3.5-.1-6.9-.3-10.3-.6l-2.2-.2c-.1 0-.2 0-.3.1l-2.5-.3c-.7-19.1-1.3-35.4-1.8-49 6.8.5 14 .7 21.3.7 7.5 0 15.2-.2 23.1-.7v48.9l-1.4.1h-.1l-1.2.2c-5.2.5-9.5.7-13.5.8-.2 0-.3.1-.4.2h-4.2zm5.3 25.1c1.9.9 4.1 1.4 6.8 1.4 1.9 0 4-.2 6.4-.7l4.9 24.1-16.6-2.7-1.5-22.1zm1.6 23.2l16.8 2.7-7.1 13.6-17.4-3 7.7-13.3zm-8.2 17.9v-3.7l17.5 3v3.7l-17.5-3zm29.6-90l-.1-.2-1.5.6c-1.7-11.2-1.6-20.1.3-26.5l.9.4c0 .1.1.2.2.3l3.5 1.7v19.8c-.7 1.7-1.9 3.1-3.3 3.9zm28.5-38v-4.3c.7.3 1.5.5 2.4.8h6.7l-.8 3.7-2.3 2.6c-.6-.2-1.2-.4-1.8-.4h-.1l-4.1-2.4zm.2-29.8h8.7c2 .3 2.9 1.6 2.8 4.2v17.6c-.3 1.7-.9 2.8-2 3.4-.1 0-.2 0-.2.1h-6.9c-1.1-.3-2-.6-2.7-.9-1.3-.7-2-1.6-2.3-2.8 0-.1 0-.1-.1-.2v-19c.3-1.6 1.2-2.4 2.7-2.4zm-10.5 31.5c-.7-5.1-.7-9.4 0-12.9l6.9-2.1v5.3c-.1 3.2.2 6.3.8 9.6 0 .1.1.3.2.3l3.3 1.8c-.1.1-.2.2-.2.3-.9.9-1.4 2-1.5 3.5v.7l-1.5-.5v.1h-.2c-3.4-1.1-6-3.1-7.8-6.1zm-13.8 31.9v-18c1.7.3 3.1.4 4.4.4 1.7 5.1 2.5 10.9 2.4 17.6-1.8.2-4 .2-6.8 0zm7.8 0c.1-6.7-.7-12.4-2.4-17.6 2.5-.1 4.7-.4 6.8-1l.3-.1c2.6 4.2 4.1 9.8 4.5 16.5-2.7 1.2-5.8 1.9-9.2 2.2zm10.3-2.6c-.4-6.6-2-12.1-4.5-16.3 1.4-.5 2.8-1.1 4.3-2.1l.3-.2s.1 0 .1-.1c3.6 3.4 6.4 7.3 8.2 11.7-2.3 3-5.1 5.4-8.4 7zm9-7.9c-1.8-4.2-4.5-8-8-11.3.3-.2.6-.4 1-.7l.2-.2c.2-.1.4-.3.5-.4 3.5 1.5 6.7 3.4 9.7 5.6-.8 2.5-2 5-3.4 7zm3-12.1c-.1.1-.2.3-.2.4-1.8-1.2-3.7-2.2-5.6-2.9-.1-.3-.1-.6-.1-1v-.2c.1-1.2.5-2 1.3-2.9.1-.2.4-.4.7-.6.6-.4 1.2-.6 1.8-.6h.2c.7 0 1.4.2 1.8.4.1 0 .2 0 .2.1 0 0 .1 0 .1.1.1 0 .1.1.1.1.3.2.5.4.7.5.7.7 1.1 1.6 1.2 2.6v.2c0 1.2-.4 2-1.2 2.8-.2.5-.6.8-1 1zm10.5-3.8c-2.3 3-5.3 4.2-9 3.9.1-.1.2-.1.2-.2 1-1 1.4-2.1 1.4-3.6v-.2c-.1-1.2-.5-2.2-1.1-3l3.4-3.6c.1-.1.1-.2.1-.3l1.6-10.7c1.4-.4 3.2-.4 5.5 0 .3 6-.4 11.8-2.1 17.7zm-68.5-17c-.7 1-1.9 1.9-3.6 2.5-1.2.4-3.6.7-8.7-.1-.3 0-.5.1-.6.4 0 .3.1.5.4.6 2.2.4 4.1.5 5.6.5s2.6-.2 3.5-.5c1.8-.8 3.2-1.7 4-2.9.2-.2.1-.5-.1-.7 0-.1-.3-.1-.5.2zm-10.2-11c0-.3-.2-.5-.5-.5h-9.7c-.3 0-.5.2-.5.5s.2.5.5.5h9.7c.3 0 .5-.3.5-.5zm15.2-.6h-9.3c-.3 0-.5.2-.5.5s.2.5.5.5h9.3c.3 0 .5-.2.5-.5s-.2-.5-.5-.5zm-27.4 25.2h.7l30.5-.1c.3 0 .5-.2.5-.5v-35.8c0-.3-.2-.5-.5-.5h-31.9l-.4.1c-.1.1-.1.2-.1.4l.7 35.9c0 .3.2.5.5.5zm1.2-1l-.6-34h30.1v33.9l-29.5.1zm25.1 53c1.5 0 2.7-.5 3.7-1.5 1.1-1 1.7-2.3 1.7-3.8 0-1.4-.6-2.8-1.6-3.7-.4-.6-.8-.9-1.3-1.2-.9-.7-1.9-1-3.1-1-1.5 0-2.7.5-3.7 1.5-.9.9-1.4 2.2-1.4 3.8 0 .8.2 1.5.4 2.2 0 .1.1.2.1.2.2.7.6 1.3 1.3 2 1.1.9 2.4 1.5 3.9 1.5zm-4.4-4.2c-.2-.5-.3-1.1-.3-1.7 0-1.2.4-2.3 1.2-3.1.8-.8 1.7-1.2 2.9-1.2.9 0 1.7.2 2.4.8l.6.5c.8.8 1.3 1.9 1.3 3s-.4 2.1-1.3 2.9c-.8.8-1.8 1.3-2.9 1.3-1.1 0-2.1-.4-2.9-1.3-.4-.4-.6-.7-.8-1.1l-.2-.1zm-11.4-6c-.1 0-.1-.1 0 0-1-.7-2-1-3.2-1-1.5 0-2.7.5-3.7 1.5-.9.9-1.4 2.2-1.4 3.8 0 .9.1 1.6.5 2.2 0 .1.1.1.1.1.2.7.6 1.3 1.3 2 1 1 2.3 1.5 3.9 1.5 1.5 0 2.7-.5 3.7-1.5 1.1-1 1.7-2.3 1.7-3.8 0-1.4-.6-2.8-1.6-3.7-.5-.5-.9-.9-1.3-1.1zm-.2 7.2c-.8.8-1.8 1.3-2.9 1.3s-2.1-.4-2.9-1.3c-.4-.4-.6-.7-.8-1.1l-.1-.2c-.2-.5-.3-1-.3-1.7 0-1.2.4-2.3 1.2-3.1.8-.8 1.7-1.2 2.9-1.2.9 0 1.7.2 2.4.8l.1.1c.1.1.3.2.5.4.8.8 1.3 1.9 1.3 3-.1 1.2-.5 2.2-1.4 3z" fill="#105b7a"/></svg>