<svg xmlns="http://www.w3.org/2000/svg" width="21" height="21" viewBox="-10 34 21 21" enable-background="new -10 34 21 21"><style type="text/css">.st0{fill:#C4C4C4;}</style><path class="st0" d="M10.7 42c0-.4-.4-.7-.8-.7h-6.2l-2.5-6.3c-.3-.6-1.2-.6-1.4 0l-2.5 6.3h-6.3c-.7 0-1 .9-.5 1.4l4.9 4.2-2 6.7c-.2.7.6 1.3 1.2.9l6-3.9 6 3.9c.6.4 1.4-.2 1.2-.9l-2-6.7 4.9-4.2c0-.2.1-.4 0-.7zm-6.5 4c-.2.2-.3.5-.2.8l1.6 5.1-4.6-3c-.2-.2-.6-.2-.8 0l-4.6 3 1.6-5.1c.1-.3 0-.6-.2-.8l-3.7-3.1h4.7c.3 0 .6-.2.7-.5l1.9-5 1.9 5c.1.3.4.5.7.5h4.7l-3.7 3.1z"/></svg>