<?xml version="1.0" encoding="utf-8"?>
<!-- Generator: Adobe Illustrator 19.1.0, SVG Export Plug-In . SVG Version: 6.00 Build 0)  -->
<!DOCTYPE svg PUBLIC "-//W3C//DTD SVG 1.1//EN" "http://www.w3.org/Graphics/SVG/1.1/DTD/svg11.dtd">
<svg version="1.1" id="Layer_1" xmlns="http://www.w3.org/2000/svg" xmlns:xlink="http://www.w3.org/1999/xlink" x="0px" y="0px"
	 width="16px" height="16px" viewBox="0 0 16 16" style="enable-background:new 0 0 16 16;" xml:space="preserve">
<style type="text/css">
	.st0{fill:#C4C4C4;}
</style>
<path class="st0" d="M15.4,0C15.4,0,15.4,0,15.4,0C15.4,0,15.4,0,15.4,0H10c0,0,0,0,0,0C9.9,0,9.8,0,9.7,0c-0.1,0-0.1,0.1-0.2,0.1
	L0.2,9.5c0,0,0,0,0,0C0.1,9.6,0,9.8,0,9.9c0,0.2,0.1,0.3,0.2,0.4c0,0,0,0,0,0l5.5,5.5C5.8,15.9,6,16,6.1,16c0.2,0,0.3-0.1,0.4-0.2
	l9.3-9.2c0,0,0,0,0,0c0.1-0.1,0.1-0.1,0.1-0.2c0-0.1,0-0.1,0-0.2c0,0,0,0,0,0V0.6C16,0.3,15.7,0,15.4,0z M14.8,5.9l-8.6,8.6L1.5,9.9
	l8.7-8.7h4.6V5.9z M11.7,2.6c-1,0-1.8,0.8-1.8,1.8s0.8,1.8,1.8,1.8c1,0,1.8-0.8,1.8-1.8S12.7,2.6,11.7,2.6z M11.7,5.1
	c-0.3,0-0.6-0.3-0.6-0.6s0.3-0.6,0.6-0.6c0.3,0,0.6,0.3,0.6,0.6S12,5.1,11.7,5.1z"/>
</svg>
