<svg xmlns="http://www.w3.org/2000/svg" viewBox="0 0 302 421" enable-background="new 0 0 302 421"><style type="text/css">.st0{fill:#FFFFFF;}</style><g id="Layer_1"><path class="st0" d="M101.3 177.5l-7.6.5c0 1.5 0 2.7.1 3.6.2 9.4 5.5 11.3 9.9 11.3h1.1l12.6-1.2c.5-1.5.5-2.6.5-2.6s-1.5-79.1-1.9-89.1c-.1-2.2-.7-4-1.6-5.5-4.6-.4-8.7-.7-11.9-.9h-1.4c-3.1 0-5.4.8-6.8 2.3-2.2 2.4-2 6-2 6v.2c0 .1 0 2.2.1 5.7 6.1.3 10.6.6 10.6.6s7 1.5 7.3 8.7c.3 7.8.3 51.7.3 51.7s.7 7.2-9.3 8.7zM77.2 179.2l-12.6.9s-10.4 1.4-10.7-10c-.2-8.4-1.2-56-1.2-56s-.7-8.8 10-8.1c3.2.2 8 .5 13.1.8-.1-7.9-.3-14.7-.4-20-6.8-.5-13.2-1-17.7-1.5-14.1-1.5-13.3 10.3-13.3 10.3s1.7 87.4 2 98.1c.4 12.8 14.1 10.7 14.1 10.7l17-1.8c.1-6.3-.1-14.4-.3-23.4zM228.5 70.8c-.6-16.4-15-19.8-15-19.8s-49.9-7.5-71.7-10.2c-21.8-2.7-20.5 18.4-20.5 18.4s5 154.3 5.5 173.4c.6 22.8 21.8 19.1 21.8 19.1l75.1-13c13.6-2.7 14.3-19.7 14.3-19.7s-8.8-130.3-9.5-148.2zm-16.8 131.1l-55.9 5.8s-16.3 2.5-16.6-17.3c-.3-14.6-3.5-98-3.5-98s-1.1-15.3 15.6-14c17.1 1.3 58 4.4 58 4.4s11 2.6 11.4 15.1c.5 13.6 5.2 89 5.2 89s1.3 12.3-14.2 15zM155.5 204.7l21.5-2.2c-1-21.9-4.9-107.1-5.4-119.5v-.2c-7.8-.6-15.3-1.2-20.6-1.5l-1.7-.1c-3.6 0-6.3 1-8.1 2.9-3 3.1-2.7 8-2.7 8.1v.1c0 .1 0 .5.1 1.3 8.7.8 15.4 1.3 15.4 1.3s9.4 2.1 9.9 12.3c.4 11.1 3.1 71.5 3.1 71.5s1.1 10.2-12.3 12.4l-12.5 1.2c.9 10.3 6.9 12.5 11.9 12.5.8 0 1.2-.1 1.2-.1.1.1.2 0 .2 0zM122.6 194.2l-17.4 1.7s-14 2-14.3-14.2c-.2-11.9-1.6-79.6-1.6-79.6s-1-12.5 13.4-11.5c4.2.3 10.2.8 16.7 1.3-.4-12.9-.7-23.1-.9-28.4-8.4-.8-16.5-1.7-22.4-2.3-19-2.2-17.8 14.7-17.8 14.7s2.3 124 2.7 139.2c.5 18.1 19 15.2 19 15.2l23.6-3c-.2-7.1-.5-18.9-1-33.1zM86.7 304.8l-5.2 14.1c-.1.2-.1.3-.3.3h-2.1c-.2 0-.3-.1-.2-.3 3.4-9.2 9.5-25.7 13.2-35.7.2-.3.2-.5.3-1.5 0-.2.1-.2.2-.2h3.1c.2 0 .2.1.3.2l13.7 37.3c.1.2 0 .3-.2.3h-2.2c-.1 0-.2-.1-.3-.2l-5.3-14.1h-15zm14.4-2.2c-1.3-3.7-5.8-15.6-6.9-19.3h-.1c-.9 3.3-4.1 11.7-6.7 19.3h13.7zM112.9 305.8c0-8.6 6.2-14.5 14.4-14.5 1.9 0 4 .2 5.6.9v-13.9c0-.2.1-.3.3-.3h1.9c.3 0 .3.1.3.3v37c0 .6.1 1.3.1 1.7 0 .2-.1.3-.2.4-2.9 1.9-6.2 2.5-9.3 2.5-7.9-.2-13.1-5.2-13.1-14.1zm20-11.1c-1.5-.7-3.5-1.1-5.7-1.1-7.8 0-11.8 5.5-11.8 12 0 8.8 5.5 11.8 10.8 11.8 2.7 0 4.8-.5 6.6-1.4v-21.3zM166.2 305.5c0 8.6-5 14.2-12.4 14.2-9.1 0-12.6-7.6-12.6-14.2 0-8.2 5-14.2 12.6-14.2 7.4 0 12.4 5.7 12.4 14.2zm-22.4-.1c0 6.4 3.4 12.1 10.1 12.1 4.6 0 9.8-3.1 9.8-11.9 0-6.1-2.8-12.1-10.1-12.1-5.9 0-9.8 4.8-9.8 11.9zM174.3 277.9c.1 0 .2 0 .2.2v15.3c2.7-1.4 5.4-2.1 8.2-2.1 7.4 0 11.8 5.5 11.8 13 0 9.9-7.4 15.4-14.9 15.4-2.7 0-4.9-.3-7.3-1.2-.2-.1-.3-.3-.3-.5v-39.9c0-.2.1-.2.3-.2h2zm7.9 15.7c-2.7 0-5.3.6-7.7 1.9v21.1c1.6.5 3.1.7 5.3.7 6.1 0 12.1-4.5 12.1-13 0-5.9-3.3-10.7-9.7-10.7zM201.4 305c-.3 7.1 3.5 12.3 10.5 12.3 2.3 0 4.8-.3 7.2-1.7.2-.1.2 0 .2.2v1.7c0 .2-.1.3-.2.4-1.8 1.1-4 1.7-7.5 1.7-9.3.1-12.7-7.1-12.7-14 0-8.4 4.6-14.4 11.8-14.4 7.5 0 10.4 6.4 10.4 10.6 0 1.8-.1 2.7-.3 2.8-1 .3-3.5.3-6.1.3h-13.3zm12.9-2c3.5 0 4.1-.1 4.2-.3.1-.2.1-.7.1-1.2 0-2.2-1.6-8-8.1-8-5.5 0-8.3 4.3-9 9.5h12.8zM39.7 329.3c0-.2 0-.3.3-.3 1.6-.1 4.7-.1 8.1-.1 9.6 0 13.8 5.1 13.8 11.9 0 8.9-6.9 12.6-14.9 12.6-2.7 0-4.2 0-4.7-.1v13.1c0 .2-.1.3-.3.3h-2c-.2 0-.3-.1-.3-.2v-37.2zm2.5 21.8c.7.1 1.8.1 4.7.1 5.7 0 12.3-2.1 12.3-10.4 0-6.7-4.7-9.9-11.3-9.9-2.9 0-5.3.1-5.8.1v20.1zM67.8 325.8c0-.2 0-.3.2-.3h2.1c.2 0 .3.1.3.2v16.9c2.2-2 5.3-3.8 9.3-3.8 3.6 0 9 1.8 9 10.8v16.7c0 .3-.1.3-.3.3h-2c-.2 0-.3-.1-.3-.3v-16.8c0-5.3-2.4-8.3-6.9-8.3-4 0-6.7 1.8-8.8 3.8v21.3c0 .2-.1.3-.3.3h-1.9c-.2 0-.3-.1-.3-.3v-40.5zM119.4 353.1c0 8.6-5 14.2-12.4 14.2-9.1 0-12.6-7.6-12.6-14.2 0-8.2 5-14.2 12.6-14.2 7.4 0 12.4 5.7 12.4 14.2zm-22.4-.1c0 6.4 3.4 12.1 10.1 12.1 4.6 0 9.8-3.1 9.8-11.9 0-6.1-2.8-12.1-10.1-12.1-5.9 0-9.8 4.8-9.8 11.9zM125.1 345.8c0-2-.2-5.3-.2-6.1 0-.2.1-.3.3-.3h1.8c.2 0 .2.1.3.3.1.5.2 2.2.3 3.4 2.8-2.7 6.1-4.2 9.4-4.2 3.3 0 8.9 1.7 8.9 10.7v16.7c0 .3-.1.3-.3.3h-1.9c-.3 0-.3-.1-.3-.3v-16.7c0-4.9-2.2-8.3-7-8.3-3.4 0-6.5 1.9-8.7 4.3v20.8c0 .2-.1.3-.3.3h-2c-.2 0-.2-.1-.2-.3v-20.6zM154.1 352.6c-.3 7.1 3.5 12.3 10.5 12.3 2.3 0 4.8-.3 7.2-1.7.2-.1.2 0 .2.2v1.7c0 .2-.1.3-.2.4-1.8 1.1-4 1.7-7.5 1.7-9.3.1-12.7-7.1-12.7-14 0-8.4 4.6-14.4 11.8-14.4 7.5 0 10.4 6.4 10.4 10.6 0 1.8-.1 2.7-.3 2.8-1 .3-3.5.3-6.1.3h-13.3zm13-2c3.5 0 4.1-.1 4.2-.3.1-.2.1-.7.1-1.2 0-2.2-1.6-8-8.1-8-5.5 0-8.3 4.3-9 9.5h12.8zM195.9 350.6c-.2 0-.3-.1-.3-.3v-1.6c0-.2.2-.3.3-.3h11.5c.2 0 .3.1.3.3v15.4c0 .2-.1.4-.3.5-3.3 1.7-7.3 2.6-11.3 2.6-12.5 0-18.2-9-18.2-19.3 0-11.8 7.5-19.7 18.7-19.7 4.2 0 8.1 1 9.9 2.3.1.1.2.2.2.4v2c0 .2-.1.2-.2.2-2.7-1.5-6.3-2.6-9.9-2.6-10.1 0-16.2 6.9-16.2 17.4 0 8 4.3 17 15.8 17 3.9 0 6.9-.9 8.8-1.8v-12.5h-9.1zM223.3 367.3c-5.8 0-10.3-2.8-10.3-8.6 0-6.7 5.8-9.5 17.1-9v-1.5c0-2.2-.9-7-6.8-7-2.7 0-5.3.8-7.6 2.3-.2.1-.3 0-.3-.2v-1.9c0-.2.1-.2.2-.3 2-1.3 5-2.2 8-2.2 6.4 0 9.1 4.4 9.1 9.9v14.2c0 .6 0 1.3.1 1.9 0 .1 0 .1-.1.2-3.4 1.7-6.7 2.2-9.4 2.2zm6.8-15.5c-11.1-.5-14.6 2.2-14.6 6.9 0 3.1 2.2 6.3 8.3 6.3 2.2 0 4.3-.4 6.3-1.2v-12zM262.3 352c0 10.3-8.3 15.3-15.4 15.3-1.9 0-3.4-.2-4.6-.5v13c0 .2-.1.2-.3.3l-1.9.3c-.2.1-.3-.1-.3-.2v-37.2c0-.3-.1-.9-.1-1.6 0-.1 0-.2.1-.2 1.5-.5 5.5-2.2 10.1-2.2 7.5-.1 12.4 5.1 12.4 13zm-19.9-9.5v21.8c1.2.5 2.6.7 4.7.7 6.9 0 12.7-5 12.7-12.9 0-6.3-3.8-10.9-10.2-10.9-3.2.1-5.3.6-7.2 1.3z"/></g></svg>