<svg xmlns="http://www.w3.org/2000/svg" width="870.531" height="128.25" viewBox="0 0 870.531 128.25"><defs><style>.cls-1 { fill: #FFF; fill-rule: evenodd; }</style></defs><path id="black_horiz_logo" class="cls-1" d="M435.682 1277.49l-4.552.33.037 2.19c.11 5.69 3.315 6.88 5.986 6.88a5.551 5.551 0 0 0 .625-.03l.083-.01 7.591-.73a6.942 6.942 0 0 0 .326-1.57s-1-48.02-1.278-54.08a6.747 6.747 0 0 0-.966-3.31c-2.767-.23-5.268-.43-7.158-.56-.29-.02-.575-.03-.842-.03a5.4 5.4 0 0 0-4.128 1.42 5.493 5.493 0 0 0-1.228 3.66.74.74 0 0 1 0 .1l.073 3.44c3.674.21 6.373.36 6.373.36a5.724 5.724 0 0 1 4.409 5.28c.2 4.76.17 31.38.17 31.38s.474 4.34-5.521 5.28zm-14.515 1.05l-7.623.56s-6.276.87-6.423-6.05c-.1-5.11-.726-34-.726-34s-.432-5.35 6.023-4.92c1.931.13 4.809.31 7.922.49-.088-4.76-.166-8.94-.226-12.14-4.073-.31-7.967-.63-10.657-.92-8.519-.94-8 6.25-8 6.25s1.025 53.02 1.218 59.5c.234 7.75 8.524 6.49 8.524 6.49l10.248-1.1c-.073-3.83-.174-8.71-.28-14.16zm91.143-65.76a12.541 12.541 0 0 0-9.048-12.01s-30.05-4.55-43.213-6.21l-12.349 11.18s2.988 93.6 3.3 105.2c.349 13.81 13.158 11.59 13.158 11.59l45.273-7.87c8.23-1.66 8.644-12.01 8.644-12.01s-5.347-79.04-5.765-89.87zm-10.128 79.51l-33.669 3.51s-9.806 1.49-10.027-10.49c-.161-8.83-2.1-59.43-2.1-59.43s-.676-9.27 9.415-8.51c10.3.77 34.97 2.66 34.97 2.66a9.54 9.54 0 0 1 6.892 9.15c.312 8.24 3.163 53.96 3.163 53.96s.739 7.52-8.644 9.15zm-33.848 1.72l12.97-1.35c-.6-13.28-2.924-64.98-3.237-72.46l-.009-.11c-4.731-.36-9.237-.7-12.395-.93-.345-.03-.685-.04-1.007-.04a6.4 6.4 0 0 0-4.878 1.73 7.4 7.4 0 0 0-1.619 4.9.243.243 0 0 1 0 .06l.032.79 9.265.81a7.962 7.962 0 0 1 5.944 7.49c.262 6.75 1.889 43.36 1.889 43.36s.64 6.18-7.443 7.5l-7.522.72c.52 6.23 4.129 7.58 7.168 7.58a6.067 6.067 0 0 0 .75-.04l.092-.01zm-19.825-6.39l-10.473 1.01s-8.46 1.23-8.644-8.59c-.138-7.23-.984-48.25-.984-48.25s-.588-7.59 8.092-6.98c2.547.18 6.17.48 10.051.8-.249-7.81-.447-14-.552-17.25-5.085-.5-9.968-1-13.476-1.41-11.471-1.31-10.749 8.89-10.749 8.89s1.365 75.24 1.632 84.46c.313 10.98 11.476 9.21 11.476 9.21l14.243-1.83c-.125-4.32-.349-11.47-.616-20.06zm124.961-20.74l-9.707 26.41a.537.537 0 0 1-.64.54h-3.84c-.427 0-.533-.22-.427-.65 6.4-17.28 17.708-48.2 24.642-67.09.32-.54.427-.97.534-2.9a.393.393 0 0 1 .426-.43h5.868a.48.48 0 0 1 .533.43c8.534 23.3 17.068 46.7 25.6 69.99.106.43 0 .65-.427.65h-4.053a.548.548 0 0 1-.534-.43l-9.814-26.52h-28.161zm26.883-4.18c-2.454-6.98-10.775-29.31-12.8-36.18h-.106c-1.707 6.22-7.575 21.9-12.588 36.18h25.5zm21.978 6.01c0-16.21 11.521-27.16 26.882-27.16a29.728 29.728 0 0 1 10.455 1.61v-26.2c0-.43.106-.53.532-.53h3.628c.533 0 .533.21.533.53v69.46a25.067 25.067 0 0 0 .213 3.11.8.8 0 0 1-.426.75c-5.44 3.55-11.521 4.62-17.388 4.62-14.829 0-24.429-9.45-24.429-26.19zm37.337-20.83a24.839 24.839 0 0 0-10.562-2.04c-14.614 0-21.974 10.41-21.974 22.54 0 16.54 10.347 22.23 20.161 22.23a26.739 26.739 0 0 0 12.375-2.58v-40.15zm62.191 20.4c0 16.1-9.28 26.62-23.148 26.62-16.962 0-23.575-14.28-23.575-26.73 0-15.35 9.28-26.62 23.469-26.62 13.867 0 23.254 10.63 23.254 26.73zm-41.922-.22c0 12.03 6.293 22.76 18.88 22.76 8.641 0 18.243-5.9 18.243-22.44 0-11.37-5.228-22.75-18.775-22.75-11.095 0-18.348 9.01-18.348 22.43zm56.966-51.63c.214 0 .427 0 .427.43v28.66a33.269 33.269 0 0 1 15.254-3.97c13.762 0 21.976 10.3 21.976 24.37 0 18.57-13.868 28.98-27.736 28.98a38.807 38.807 0 0 1-13.654-2.25.893.893 0 0 1-.534-.86v-74.93c0-.33.107-.43.534-.43h3.73zm14.828 29.52a29.312 29.312 0 0 0-14.4 3.65v39.61a30.224 30.224 0 0 0 9.921 1.4c11.307 0 22.509-8.48 22.509-24.48-.001-11.27-6.082-20.18-18.03-20.18zm35.737 21.36c-.64 13.31 6.507 23.19 19.521 23.19 4.374 0 8.962-.54 13.442-3.11.32-.22.427 0 .427.32v3.22a.728.728 0 0 1-.32.75c-3.414 2.04-7.468 3.11-14.081 3.22-17.282.11-23.789-13.42-23.789-26.3 0-15.78 8.534-27.05 22.082-27.05 14.081 0 19.414 12.02 19.414 19.86 0 3.33-.213 5.04-.639 5.26-1.921.53-6.508.64-11.415.64h-24.642zm24.216-3.86c6.507 0 7.681-.11 7.787-.54a13.228 13.228 0 0 0 .106-2.25c0-4.19-2.986-15.03-15.148-15.03-10.241 0-15.574 8.16-16.747 17.82h24zm44.591-40.05c0-.32 0-.64.532-.64 2.988-.11 8.855-.21 15.043-.21 17.921 0 25.814 9.55 25.814 22.43 0 16.75-12.908 23.73-27.735 23.73-5.12 0-7.787 0-8.855-.11v24.69a.461.461 0 0 1-.532.54h-3.735a.431.431 0 0 1-.532-.43v-70zm4.8 41.01c1.281.11 3.414.22 8.855.22 10.562 0 23.042-3.87 23.042-19.54 0-12.67-8.855-18.57-21.014-18.57-5.335 0-9.815.11-10.883.21v37.68zm47.791-47.45c0-.32 0-.53.427-.53h3.84a.428.428 0 0 1 .535.43v31.77c4.16-3.75 9.813-7.08 17.279-7.08 6.721 0 16.75 3.43 16.75 20.29v31.34c0 .54-.107.65-.535.65h-3.732c-.428 0-.535-.11-.535-.54v-31.56c0-9.88-4.481-15.67-12.8-15.67-7.467 0-12.48 3.43-16.426 7.19v40.04c0 .43-.214.54-.642.54h-3.627a.461.461 0 0 1-.533-.54v-76.33zm96.335 51.32c0 16.1-9.284 26.62-23.153 26.62-16.961 0-23.576-14.28-23.576-26.73 0-15.35 9.282-26.62 23.469-26.62 13.868 0 23.259 10.63 23.259 26.73zm-41.927-.22c0 12.03 6.294 22.76 18.881 22.76 8.641 0 18.236-5.9 18.236-22.44 0-11.37-5.221-22.75-18.77-22.75-11.095 0-18.348 9.01-18.348 22.43zm52.587-13.52c0-3.76-.31-9.99-.42-11.38 0-.43.11-.54.64-.54h3.31c.32 0 .42.11.63.54a62.646 62.646 0 0 1 .54 6.33c5.23-5.15 11.41-7.94 17.49-7.94 6.19 0 16.65 3.11 16.65 20.18v31.45a.538.538 0 0 1-.65.65h-3.52a.535.535 0 0 1-.64-.65v-31.45c0-9.23-4.05-15.67-13.01-15.67-6.4 0-12.16 3.65-16.21 8.15v39.08c0 .43-.22.54-.65.54h-3.73c-.32 0-.43-.22-.43-.65v-38.64zm54.09 12.77c-.64 13.31 6.51 23.19 19.52 23.19 4.38 0 8.96-.54 13.45-3.11.31-.22.42 0 .42.32v3.22a.733.733 0 0 1-.32.75c-3.41 2.04-7.47 3.11-14.08 3.22-17.28.11-23.79-13.42-23.79-26.3 0-15.78 8.54-27.05 22.08-27.05 14.08 0 19.42 12.02 19.42 19.86 0 3.33-.22 5.04-.64 5.26-1.92.53-6.51.64-11.42.64h-24.64zm24.22-3.86c6.5 0 7.68-.11 7.78-.54a12.753 12.753 0 0 0 .11-2.25c0-4.19-2.99-15.03-15.15-15.03-10.24 0-15.57 8.16-16.74 17.82h24zm53.87.1c-.43 0-.53-.1-.53-.53v-3.01a.5.5 0 0 1 .53-.54h21.44c.43 0 .54.22.54.65v28.88a1.118 1.118 0 0 1-.54.96 45.932 45.932 0 0 1-21.01 4.94c-23.26 0-33.93-16.96-33.93-36.18 0-22.22 13.98-37.03 34.99-37.03 7.9 0 15.04 1.93 18.56 4.29a.83.83 0 0 1 .33.75v3.76c0 .43-.22.43-.43.32a38.067 38.067 0 0 0-18.46-4.83c-18.88 0-30.19 12.99-30.19 32.64 0 15.03 8.11 31.99 29.45 31.99a36.75 36.75 0 0 0 16.42-3.44v-23.51zm50.99 31.35c-10.88 0-19.31-5.26-19.31-16.1 0-12.67 10.78-17.82 31.9-16.86v-2.79c0-4.18-1.6-13.2-12.7-13.2a25.876 25.876 0 0 0-14.18 4.29c-.32.11-.64 0-.64-.32v-3.54a.675.675 0 0 1 .42-.65 29.182 29.182 0 0 1 14.94-4.18c11.94 0 16.96 8.26 16.96 18.68v26.51c0 1.18 0 2.36.1 3.54a.311.311 0 0 1-.21.33 35.316 35.316 0 0 1-17.281 4.29zm12.7-29.09c-20.7-.97-27.31 4.08-27.31 12.99 0 5.9 4.05 11.91 15.57 11.91a30.569 30.569 0 0 0 11.74-2.25v-22.65zm60.27.32c0 19.43-15.47 28.77-28.7 28.77a41.878 41.878 0 0 1-8.53-.86v24.48a.56.56 0 0 1-.53.53l-3.63.54a.439.439 0 0 1-.64-.43v-69.99c0-.54-.11-1.72-.21-3.01a.44.44 0 0 1 .21-.43c2.77-.96 10.35-4.18 18.88-4.18 13.979 0 23.149 9.66 23.149 24.58zm-37.23-17.82v41.01a23.893 23.893 0 0 0 8.75 1.29c12.9 0 23.68-9.34 23.68-24.26 0-11.81-7.04-20.4-19.1-20.4a36.24 36.24 0 0 0-13.331 2.36z" transform="translate(-401.469 -1194.41)"/></svg>
